<svg width="680" height="387" xmlns="http://www.w3.org/2000/svg"><g fill="none" stroke="#888" stroke-width=".34"><path d="M88.568 176.3l-.485-.906-.57.774-.819.42-.248 1.348-1.875-.818-.88.854-1.223-1.34-.352 1.421-1.157.35.329 1.605.964-.724.733.913 1.571-.079.43-.967.527.876 1.11-.59 1.088.736 1.714-.146.264-1.113-.52-1.672.21-.657c-.51.067-.57-.092-.81-.285zm4.121-52.76l-2.013-.672-2.683.671-.671 2.683.67 2.013 2.684 1.342 2.013-1.342 1.341-2.013-1.341-2.683zM207.4 112.806h-3.354l-2.683 2.683.67 2.683 3.355.671h.67l.672-.67h.67l.671-.671v.67h0l-.67.671h.67l.671-.67v-2.684l-1.342-2.683zm30.859 15.429l1.341.67v2.013l2.013 1.342 1.341-2.013-.67-2.012-.671-2.013h0v-1.341l-.671-1.342H239.6v1.342h-1.34v3.354zm-18.784-.67l-2.012-.672-2.683-.67-3.355.67h0l.671.671v1.342h-1.341l-.671-.671v-.67l.67-.672-2.012-.67h-2.683l-.671-.671-4.025.67-4.025-.67-.67-.671v-.671.67h0v.672h-.672v2.012h0l-.67-1.342-1.342-.67-.671-.671-2.683 2.012-2.684 2.684-3.354-1.342-2.683-2.013.67-2.012.672-1.342-.671-1.341-.671-1.342 2.683-1.342 2.013-.67 3.354 2.012.67-.67.672-.672v-.67h.67v-4.026l-2.012-2.683-2.683-2.012-.671-2.013-.671-.67v5.366l-4.025 3.354-3.354 2.683v4.025l-2.684 2.013-1.341 1.342v2.012l2.683 4.025 2.013 4.025.67 1.342.671.67v.671h1.342v-.67l1.342-.671h1.341l1.342.67 1.342 1.342h4.695l5.367.671 1.342-.67.67-.672.671.671v.671l1.342-.67h1.342l3.354 2.683 4.025 3.354 20.125 12.075.67.67.671.671 4.025-.67 4.696-1.342v-.671l.67-1.342.672.671h.67l1.342-.67 1.342-.672 1.342-.67 1.341-.671.671-.671h1.342l1.341.67 1.342-2.012v-1.341l-.67-.671-1.342-2.013.67-.67.671-.671 1.342-1.342v-1.342l-2.013-3.354-2.683-2.683-3.354-2.683-.67-.671-.672-.671-.67.67-.671.672h0l-.671-.671h-.671l-.67.67v4.026l-.672 4.025h0l-.67-.671h-.671l-1.342.67-1.342-.67h-.67l-.671 1.341-2.013.671-.67-1.341.67-1.342 1.342-.671h.67v-1.342l-.67-1.341h.67l-4.695-.671-4.025.67-1.342-2.012-4.025-1.341-2.683.67v.671l-.67.671-.672-1.342h-1.341l-.671.671h-.671 0l.67-.67v-1.342l-1.34-.671h-1.343l.671-.67v-.672h1.341l1.343.671.67-1.342.671-1.341h.671l.67-.671v-.67h-.67 2.683zm-112.699 34.211l.67-.67-2.012-.671-.67.67.67.671h1.342zm4.696.671h-.671l-.67.671-2.013-1.342v2.684l-.671 2.012-1.342 1.342V165.8l-2.012.671-.671-.67.67-.671h.672l-.671-4.025h-1.342l-1.342.67.671.671-.67.671-.671.67h-1.342v1.342l-.671 1.342v3.354l.67.671-2.012 1.342-2.012 2.012v2.684l2.012 2.012 2.013-.67 4.025-1.342 3.354 1.341 4.025-2.683 4.696-2.012v-.671l.67-1.342-2.683-3.354v-3.354l-2.012-2.013zm62.387 77.146v2.012l-1.342 2.683.671.671.671.671h-2.683l-.671.67h-.671l-1.342-.67-.67 1.342-.671.67h-.671v-1.34l-.671-.67-1.342.67v-1.342l.671-.67-2.012-2.013-2.013.67-.67.672v.67h-.671v.671l1.341 4.696v.67h2.684v.672l.67.67h7.379l-1.341 2.013-2.013 2.013-.67 1.341-.671-.67-.671-.671-.671.67h-2.683l-2.013 3.355-2.012 3.354-.671.67-1.342 1.342v1.34h-.67v.672l.67.67v1.342h.671l.67-.67 2.013 1.341 2.013 1.342-1.342 1.341-1.341 1.342h.67l2.684.67 2.683-.67.67-2.013v-1.341l.672-.671h.67l.671-.67h.671l2.683 1.34 2.013 1.342-1.342-2.683-1.341-2.012 1.341-1.342h1.342l-1.342-.67-1.341-1.342h.67l.671-.671.671-.671-.67-.671h2.682v.67l.67.672 2.013.67 1.342.671v.671l.67.671.671-.67h2.013l2.012.67v-.67h0v-.672l-.67-.67 1.341-1.342v-1.342l-2.012-1.341-2.684-2.013 1.342-1.342.67-.67.672-1.342v-.67h.67l.671-.672h1.342l.672-2.683v-3.354l-.671-1.342v-.67l-.67-.672-1.343-.67h0-.67l-.671.67-3.354-2.012-3.355-2.683v-.671h-1.341l-.671.67zm-52.325-18.783l-.67-1.342-2.684-.671v-1.342l-2.012-1.341-1.342-2.013-2.683 4.025-1.342-.67h-2.683l.67 2.683-.67 2.683.67 1.342v1.341l-2.012 2.684-2.012 1.341 2.012 3.354h4.025l.67.671v.671l1.342-2.012 1.342-3.355h2.013l1.341-.67h.671l1.342.67h1.341l1.342 1.342 2.013 1.342v-.671h2.012l1.342-2.013.67-1.341-1.341-2.013v-2.012l-.67-1.342h-3.355l-1.342-1.342zm108.004 13.416l-2.683.67-.671.672v.67h-1.342l-1.342-.67h-3.354l-.67-.671h-.671l-1.342.67-.67 1.342h-2.013l-2.013-.67v1.341l-.67.671v2.683l-1.342.671h-2.684 0v-.67h-2.012l-1.342.67-1.342 2.683-.67 3.355v.67h.67l-.67.671h-1.342l-.67 2.013v2.012l1.34.671 1.342.67v2.684h2.013v.671l.67.67.672-.67.67.67 1.342 2.013.67 2.013.672.67 1.341.672h.671l.671 2.012 1.342 2.683h.67v-.67l.671.67v.671h.671l1.342.671 1.342 1.342.67 1.341h1.342l.67-.67v-1.342h.672l1.341-.671-.67-.67v-.672h1.34v-.67l-.67-.671.67-.671 1.342-.671v-.67l.67-.672h.672v-1.341l.67-.671h.671v-2.013l1.342.671 2.012-.67-.67-4.696v-.671h-2.013l-.67-.671.67-.67 1.342-.672v-4.025l2.012-1.341 2.013-1.342.67.67.671 1.342-.67.671v1.342h1.341l1.342.67 1.341.672 2.013 1.341.67-.67h1.342l4.696 1.341 5.367-2.012-1.342-1.342h-2.012l-.671-.67-.67-.672-2.013-1.341-1.342-.671v-1.342l.67-2.012h-1.34l-1.343-1.342.671-.67v-.672l-.67-.67h-.671l-.671-2.684-1.342-2.012-.67-.671h-.672l-.67-.671-2.013-.67h-2.012l-.671-.672-.671-1.341h-1.342l-.67.67-1.342 2.013zM77.796 183.914h-1.073l-.201.67-.738.671h-.537l-.335-.67-1.61-.671-1.543-.671h-.202l-.268.67h-1.342l-1.14.672-.335.67-.47.671.47 3.354 1.475 2.684.738.67.671.671-.134 1.342.067 2.013L72.43 198l.873.671h1.274l.269-.67.536-.672h1.074l.872-.67H78.4l3.287-5.367-.067-1.342 1.006-1.341h.671l-.67-.671v-2.683H81.62l-1.409-2.013h0-.805l-.939.67h-.67z"/><path d="M206.73 201.355l-2.013-1.341-2.012-1.342v-2.012l-.671-.671v-.671l-1.342.67v.672l-2.012 2.683-1.342 2.683v1.341l-3.354 3.355-3.354 3.354-1.342.671-1.342.67-2.012 2.013 1.342 3.354-1.342 2.013v2.683h0l-2.013 2.013-3.354.67-.67 2.013v1.342h-2.013l-1.342-1.342-1.341 1.342-1.342 2.012h-3.354l-1.342.671h0v.67l-.67 2.013-1.342 1.342v2.013h.67l.671.67 2.684 1.342 2.012 1.342h.671l.67-.671h1.342v.67l3.355 2.684 3.354 2.012.67-.67h.671l1.342.67.67.671v.671l.672 1.342 2.012-1.342 2.013-.67 1.341.67 1.342 1.342h1.342l.67.67 1.342 1.342 2.013-1.341h3.354l-.671 1.341h1.342l.67-.67h-.67v-.671l.67-3.355 1.342-2.683 1.342-.67h2.012v.67h2.684l1.341-.67v-2.684l.671-1.342v-2.012l-.67-.671v-6.037l-2.013-1.342-2.013-2.013.671-2.012.67-2.683v-1.342l-.67-.67h0v-3.355l.67-2.683 1.343-2.684-1.342-2.012-.67-1.342-2.013-4.696zM92.689 189.951l-1.342-.67v.67h-4.025l-1.342.671h-.67l-.671-.67-.671.67-1.342.67h-.939L78.4 196.66l.47 1.341v1.342h1.475l1.543.67-.201 1.342.268 1.342 1.342.67h2.012l.671 1.343.671.67h1.342l.67-.67 4.026 2.012h1.341l.671-.67h0v-.672l.67.671h1.343l-.671-1.341H94.7l1.342-.671h1.341l.671-.671 1.342-.671v-1.342h0l.67-1.341v-1.342l-1.341-.67h-.67 0l.67-.672v-1.34l-2.683-3.354-2.013-2.684H92.69zm-24.687-4.025l-2.683-.67-2.684-.671-.268.67h-.47l-1.475.671h-1.074l-.268.671-.201 1.342-1.61.67-.738 1.342.872.671 1.14.67v2.013l1.744.671 1.275.671.067 1.342.134 2.012.671.671.671.67-.201.672v1.341h1.006l.201.671h.47l2.214-.67.805.67.2-1.341-.066-.671.335-.671.403-1.342 2.817-1.341-.067-2.013.134-1.342-.67-.67-.739-.671-1.475-3.354-.47-2.684zm185.015 65.742l-5.367 2.012-4.696-1.342h-1.341l-.671.671-2.013-1.341-1.341-.671-1.342-.671h-1.342v-1.342l.671-.67-.67-1.342-.671-.671-2.013 1.342-2.012 1.341v4.025l-1.342.671-.67.67.67.672h2.012v.67l.671 5.367h-2.012l-1.342-.67v2.011h-.67l-.671.672v1.341h-.671 0l-.671.671v.671l-1.342.67-.67.672.67.67-.67.671h0-.671v.671l.67.671-1.341.67h-.671v1.342l1.342 2.013-.671 3.354v1.342h.67l-2.012 2.683.67 1.342.672.67.67.671h.671l.671-.67h.671v.67h.67v-.67l.672-.671v4.696l1.341-.671v-.671l1.342.67 1.342 1.342.67.671h1.342v.671l-.67.67-1.342-.67-1.342 2.013.67 1.341 1.342-.67 3.355 2.012h.67l2.684-1.342h2.012l1.342-1.341h1.342l.67-2.013.671-1.342.671-.67v-.671l-.67-2.013-.672-1.341.671-3.355 1.342-1.341-.67-.671v-1.342h1.34l1.342-1.341 1.342-.671h2.683v-1.342l-.67-1.342.67-1.341 1.342-.671v-1.342l.67-1.341.672-.671v-1.342l-.671-.67-.671-1.342.67-.671v-1.341l-.67-1.342v-2.684l-.67-.67v-.671h.67v-2.013h.67v-1.342zM86.651 135.614v-.67H84.64l-1.342.67-.67-1.342-.94-.67-1.275.67H79.34l-3.354 1.342.47 2.683.67 2.013-.603.67h-.805l-.068.672-.134.67-2.012.671-.336 1.342-1.207 1.341.134 1.342.872 1.342.94.67 3.756 1.342 3.69.671 1.274.671.67.67h0l2.013-.67 2.013-.67.67-.672.672-.67 2.012 1.341 1.342 2.013h.67l.671.67 1.342.671.67-.67h.672l1.341.67.671 1.342h.671l1.342.67v-4.024l-.671-.671h-.671v-.67h-.67V149.7l.67-2.012-1.342-2.013-.67-1.341v-2.013l-1.342-1.341v-.671l-.671-.671h-2.683v-2.683l-.671-.671-.67-.671h0v-.67l-1.343.67-1.341.67-1.342-.67z"/><path d="M78.4 196.66h-1.073l-.873.67h-1.073l-.536.671-.269.671h-1.274l-.872-.67-1.14-1.342-1.477.67-1.341.671-.403 1.342-.335.67.067 1.342-.201.671-.805-.67-2.214.67.402 1.342 1.275 1.342 1.878.67 1.61.671v.671h-.067l.604.67h.805l.604 1.342-.202.671 1.677 1.342 1.812 2.012 1.274-.67 1.074-.671-.671-4.025 2.348-2.683 2.951-2.013-.268-1.342.201-1.341-1.543-.671H78.87V198l-.47-1.341z"/><path d="M58.543 191.964v-.671l-1.14-.67-.872-.672h-2.683l-.47.671-1.208-1.342-1.274 1.342-.671.67-1.207-.67-.202.67-.134.672-1.677 1.341 1.14 2.013 1.543 2.012-.2.671-.336.671h.335l.201.67h-.335l-.335.672 1.274 1.341h2.416l.603 1.342.738.67 3.153 1.343 4.025 2.012.603.67.604 1.342.94-1.341.737-1.342.872.671h1.007v-.67l.402-.672-.134-.67h0l-1.275-1.342-.402-1.342h-.47l-.201-.67h-1.006v-.671l.201-.671-.67-1.342-.672-.67-.134-2.013-.067-1.342-1.275-.67-1.744-.672v-1.341zm143.49 55.679l-3.353.67-2.013.671-1.341-1.341-.671-.671h-.671 0-.671l-1.342-1.342-1.341-.67-2.013.67-2.012 1.342v3.354l-.671 2.683h-1.342l-.67.671h-.671v.67l-.671 1.343-.671.67-1.342 1.342 2.684 2.013 2.012 1.341v1.342l-1.342.67.671.672v2.012l3.354.67 3.355.672 1.341.67.671.671.67-.67.672-.671h1.341l2.013.67.67.671 5.367.671 5.367.671.67-.67.672-.672h.67l1.342.671.67-.67h.672l-1.342-2.684-.67-2.012h-.672 0l-1.341-.671-.671-.671-.67-2.013-1.343-2.012-.67-.671-.671.67-.671-.67v-.67h-2.012v-2.684l-1.342-.67-1.342-.672v-2.683l.671-1.342zM20.507 116.16h1.61zm3.019-.67l.805-.672-.805.671-.738.671h.067l.671-.67zm6.641 2.012h0l-3.823-.671-.94-1.342-1.073-.67-.805.67-.67.671h.268l.737 2.012-1.542-.67-2.013-.671 2.818 5.366 3.22 4.696 1.878 2.684h.604l.737-.671 2.348-.671-.603-4.696-.202-2.012-.067-2.013-.335-.67h-.873l-.737.67-.738.671-1.207-1.342-.47-1.341h3.488zm87.343 65.741l-1.342-.67-1.342-.672-.67-1.341-.672-1.342-.67.67-1.342.672-4.696-2.684-3.354-1.341-3.354 1.341h0l.67 2.013-.67 2.683h2.683l.67 1.342.672 1.341 2.012 2.013h.671v2.012l1.342.671 1.341.671h.671l.671.67.67-.67 1.342-1.342 1.342.671 1.342.671 1.341-.67.671-1.342 1.342-.671h.67v-.671l-1.34-2.013h-2.013l.67-.67.671-1.342z"/><path d="M57.068 174.522l-.671.671h-2.751l-1.274-.67h-1.409l-1.14-2.013-2.013-.671-.604.67-.2 1.342-.403.671h-.47l-1.006 1.342-1.074 1.341-.603 1.342h-.47l.537.671-.134.67h.402l1.677.672 1.275-.671.603.67.403 1.342 1.275.671 1.073.671 1.61 2.012.201 2.013-.872 1.342-.134 2.012 1.274-1.342 1.208 1.342.47-.67.335-.672.402.671h.269l1.677-.67.738-.671 1.61-.671.201-1.342.268-1.342 1.074.671 1.475-.67h.47l.268-.671-1.543-2.684.671-1.341 1.074-.671-.671-3.354-.403-2.684-2.348.671h-2.347zm20.326 78.488h-.872l-.738-.672-.135.671h-.134l-.536-.67h-.872l-1.14.67.67 1.342.403 2.012.805.671.536.671-.872.67-.604 1.343.202 2.012.67 1.342h1.745l1.408 1.341h-1.14l-1.476.671-.335 3.354-.269 2.684-2.415.67h-2.482l.134.671.671.671-.268.671-.201.67.67.672.47.67-2.28.671-.604 2.013.268.67h1.342l.47.671.469.671v.671h.671l-.135.67h.605l.402-.67 1.945 1.342.067.67h.067l.738-.67h.336l-.135.67.47-.67.67-.671.403.67-.067.672-.536.67-.269.671.805-.67.805-.671 1.879-1.342 1.945-.67.335.67-1.207-5.367h.402l.805 1.342h1.342l.67-4.696v-5.367l-1.34-1.341-1.074-1.342-.67.671-.672-.67.604-2.013 1.14-1.342-.268-2.012-.67-2.013 1.61-1.342-.672-1.341-.402-1.342-2.013-.67h-2.146zm478.838-42.263l-1.342-1.342-.67-.67-.671.67-.671.671-.671-.67h-1.342l-.67 1.341-1.342 2.012-.671-.67-.67-.671-.672.67h-1.34l-3.355-1.341h-2.683l-.67 4.025v4.025l-.672.67-1.341.672v1.341l-.671.671-.67.67v1.342l-.672 2.684 1.342 2.012.67 3.355.672 2.683 1.341 1.342.671 2.012-.67.67-1.342-1.34-.671.67-.671.67-.67 2.684-2.684 2.013h0l-1.342.67h-.67l-1.342-.67h0l-.671.67v2.012l-.671.672-3.354 1.341-3.354 1.342h-1.342l-1.343 1.342-.67 1.341-.671 4.025-.671 2.013.67 2.683h-2.012l1.342 2.013 2.012 1.341-.67.671-.671.671v2.012l-1.342.671-.67 1.342h1.34l.672.67 1.341.672.671 1.341v1.342l-.67.67h-1.342v3.355l-.671 3.354 2.683.67 2.013-1.34.67.67h.671l1.342-.67.67-.672 1.343.671.67.671h1.342l-.67 2.013-1.342 1.341v1.342l-1.342 1.343-1.342 1.341-.67.671-.671.67v4.026l-2.013 1.342v2.683l2.013.67h2.683l1.342 1.342 1.341 2.013h2.684l.671-.671 1.342-.67 2.683-1.343 1.342-1.341.67-1.342h1.342l2.013-.67.67-.671h.672v-.671l2.012.67.671 2.684v2.683l.67 1.342v1.341l-.67.671h-2.683l-3.355.671h0l.671 1.342v2.683l-1.341.67-1.342.672-.67.67-.672 1.342v1.34l-2.012 1.343-2.013 1.341.671 1.342v.67l-.67 1.342-.671 2.013v4.025l.67-.671h0l.671.67v.672h.671l.67-.671.672.67v.672h.67l1.342.67v4.696l.671 2.013v2.012l2.683-1.342h.671l.671-.67.67-1.342h1.342l1.342.67 1.342-.67h1.341l.671.67 1.342 2.013h1.342l1.341.671h2.012l.672-1.342h3.352l1.342-.67.671 1.341h0l.671 1.342-2.012 1.342-.671 1.341.67 1.342.671.67 1.342 1.342-1.342 2.013-.67.67v3.355l.67 3.354 1.342-1.342v-1.341l.67-2.013 1.343-2.012h.67l.671.67.671-.67.67.67v1.342l.672-.67.67-.671.671.67.671.671 3.354-1.341 2.684-2.013v-2.683l2.683-1.342 1.342-4.025h-2.684l-.67-.67v-.672l-.671-.67-.671-.671v-.671h1.341l1.342-2.013 2.683-1.341h0v.67l1.342 1.342 1.342 1.342-.671 1.342v1.341l1.342.671h2.012l1.342-6.037 1.341-4.696v-.671l-.67-1.342v-2.683l-.671-.67v-2.013l-.671-2.013-.67-1.341-.672-1.342v-2.012h0l-3.354-9.392v-1.341l.67-3.355-.67-2.683.67-1.342-.67-.67-.67.67-1.342-2.012v-2.013h-.671l-.671-.67-2.683-1.342h2.012l.671-1.342-.67-1.342h-1.343l-1.341-.67h0l-.671-.671h-2.013l-2.012-1.342v-.67l-1.342-.672h0-.67l-.671-.67h-1.342l-.67.67-.672.671-2.012.67h-1.342.671l.67 1.343v5.366l-.67-1.341v-2.683h0l-1.342 2.683-3.354 3.354v-2.013l1.342-2.683h-.67l-.672.67h-.67l-1.342-.67.67-.67.671-.672v-.67l-2.012 2.012.67.67v2.013h-1.34v.671h0l-1.343-3.354-2.012-3.354-4.696 2.012-3.354-1.341 1.342-2.013.67-1.342 1.342-2.012.671-2.013.67-1.341.672-.671 2.012-3.354.67-4.025.672-.671.67-.67v-.672l-.67-.67.67-1.342v-2.013l.671-.67 1.342-3.355 1.342-2.683.67-1.342v-1.341l.671-.671.671-1.342v-3.354l.671-2.683 1.342-1.342.67-5.366 3.355-4.696h.67l.671-.671.671-.671.671-.67 3.354-1.342 3.354-2.013h.671l.671-.67h.67v1.34l1.342.672.671-1.342-.67-2.012h2.683v-2.012l-2.013-2.013-2.683-1.342h-2.683l-2.013-.67v-2.684l2.013-.671-.671-1.342v-1.34l.67-.671-2.012-3.354-4.025-2.684-2.683.671-3.354.671v2.012l-.671 2.013zm-505.94 71.779l-.268-.671-1.006.67-1.476.672h-.604l.537.67 1.475.671-1.408 3.354h-.067 0-.067l-.269.671h0l-2.146.671-1.879-.67-.268-.672h-1.61l.201.671-.134.671h.94l1.072 1.342.336 1.341.134.671.738.671.738 1.342 1.409-.671h1.475l.738.67.269-.67h2.415l.67-1.342 1.14-2.012 1.678-.671 1.476-.671.201-1.342-.335-1.341h-2.281l.067-.671.201-.67h-.872l-.94-.672-.066-.67-.134-.671h-1.543l-.537-.671zm112.834-73.792l-1.342-.67-.67-.671v-.671l-.672-.67h-1.341l-1.342-.672-1.342-1.341-2.683 2.012-1.342 3.354-1.341.671h-2.012l-1.342-.67-1.342 2.012-.67 2.683-.672.67h-1.341l-.671 2.684-.671 2.013.67.67h-.67l-1.342.671.671.671h.671l1.342 1.342h2.012v.67h.671l.67.672 1.342-.671v-.671l-.67-.67 1.341-.672 1.342.671h-.67v2.683l.67-.67 1.342.67-2.013 1.342h-2.012l.67 1.342h.671l1.342 1.341.67 1.342 1.342.67 1.342-.67 2.013-.67 2.012-.672-.67-1.341-.672-2.013h-.67l-.671.671v-3.354l.67-.67h.671l.671-.672v-.67l.671.67.67-.67 2.684-6.038 2.013-6.038z"/><path d="M44.791 281.855l-1.006.67h-.805l-.537-.67h-.67l-.738.67-.403-.67-.536-.67-1.476.67-1.543.67-.604-.67h-.604l1.007 3.354.067 1.342 1.945.67 2.348.671h2.617l.536-2.012-.671-.67.738-1.343 1.073-1.341h.536l1.477.67-.269-2.012-1.677-1.342-.805 1.342zm68.693-73.121l-2.012.671-1.342.671h-.67v-.67l-1.342.67-1.342.671-1.342-2.683-1.341-4.696-1.342-.671h-1.342l-.67-.67-1.342-1.342v2.012l-1.342.67-.67.672H94.7l1.342.67.67 1.342h0l-1.341-.67h-.67 0v.67l-1.343.671 1.342 2.012 1.342 1.342.67-.67.671-.672 1.342 2.684 2.013 4.025h1.341l1.342-1.342 2.012 2.013 2.684 1.341h2.683l1.342.671 2.683-4.025.67-2.683h-.67v-.671h-.67l-.672-.67.671-.672-.67-.67zm24.821-122.091l-2.683-3.354-2.013 4.696-2.683 3.354h-2.013l-2.012 1.342h-.67v.67l-.672.672-2.012.67-.671 2.013.67.67h0l-.67.672-2.013 2.012-.67 2.683-2.013.671h-2.012l-.671 4.696-.671 5.367-8.72 1.341-9.392.671v1.342l1.341 2.012v-.67l.671.67h4.696l.67-.67h0l.672 6.708-2.013 7.379h4.025l.67.67h1.342l-.67-1.34v-.672h.67l1.342 1.342 1.342 1.342h1.341l.671.67.671 2.684h0l.671.67.67-2.012-.67-3.354.67-3.354v.67h.672l.67-1.341.671-1.342v2.013h.671l.67-2.013.672-1.341v2.012h0l.67-1.342.671-.67-.67 2.012-1.342 2.683h.67l.672-1.341v.67l1.341.671 1.342-2.683v-.67h-.67v.67-1.342l-.672.671h0l.671-2.012.67-2.013.672 6.038-3.354 4.696-.671 2.012-.671 2.683h1.342l1.341 1.342 2.013 2.013.67-.671.671-.671h.671v.67l1.342-2.012.67-2.012h0v-.671l1.342-1.342 1.342-1.341-1.342-2.013-.67-2.683 1.341-1.342.671-1.342.67-2.012.672-2.013.67.671.671.671 1.342-.67 1.342-1.342v-1.342l.67-1.342v-2.012h-1.34v-3.354l.67-.671h0l2.684-3.354.67-1.342.672-2.012h.67l.671.67 1.342-1.341.67-.671v.67h.672l.67-4.024-1.341-4.025h2.012l-.67-1.342-.671-1.342.67-.67h-.67l-.671-.671-2.013.67-.67-2.012.67-2.012-2.683-3.355zM73.637 254.35l-.67-1.34h-2.015v-1.342l-1.006-.671-.47 1.341-.871 1.342-2.482-1.342-3.287 1.342-.403.67 1.14.672h2.013l-.94 2.012-1.877 1.342-.135.67-.134.672h-3.42l-.537 1.341-.738.671h-.268l-.335-.67-1.007.67-1.207-.67-2.08-4.697-2.884-2.012-1.811.67-2.415.672.47.67h.67l-.067.671.134.671.805-.67h.872l.201.67-.402.67h4.025l.604 2.013.536 1.342 1.007 1.342.805 1.341-.202 1.342-.268 2.012.402 1.342.94 1.342 1.542 3.354.537 3.354.47.67 1.073.672 2.013 3.354 1.408 2.012h.738l.47.671.536-.67h.403l2.08-1.342 2.213-.671.47-.67h.67v-.672l-.469-.67-.47-.671h-1.073l-.268-.671h-.268l.603-2.013 2.281-.67-.47-.671-.67-.671.2-.671.27-.67-.672-.672-.134-.67h2.482l2.415-.671.269-2.684.335-3.354 1.476-.67h1.14l-1.408-1.342h-1.745l-.67-1.342-.202-2.012.604-1.342.872-.671-.536-.67-.805-.672-.403-2.012z"/><path d="M47.475 283.867l-.537-.67h-.872l-.201-.671h-.336l-1.073 1.341-.738 1.342.67.67-.536 2.013-1.006.671 2.147.671 2.146-.67h0l.269-.672h.134l1.408-2.683-1.475-1.342zm254.512 38.238h-.67l-.671-.671-.671-.671-.67.67h-.672l-.67-.67-1.342-1.342-2.013.671-.67 1.342.67 1.342-1.341 1.341-.671-.67h0-2.012l-.671-.671-.671-.671-.671 1.341-.671 1.342h-1.342l-.67.67-.671.672h-4.696l-1.342.67-.67.671h0l-1.342-.67-1.342.67 1.342 1.342 1.341 1.342v2.683h-2.012l1.342 3.354 2.012 2.683.67 2.013.672 2.012.67.671h.671l1.342.671.67.67 2.684-.67 2.013-.67v.67l-.671.67 3.354 4.697h2.683l1.342-.671.67-1.342 3.355.671h2.012l.671-.67h.671l.67.67 1.343-2.012.67-1.342-.67-1.342v-.67H304v-.671l2.012-1.342h1.342v-1.342l-1.342-.67v-2.684h-.67l-.671-.67v-2.013l-.671-2.684-.67.671-1.343.671-2.012-.67-1.342-2.013.671-.671.67-.67v-2.013l1.343-.671 1.341-1.342v-2.012h-.67zm-139.532-91.233l-.671-.671v-.67h-2.012l-2.013-.672-2.012.671-2.013.671h-2.683l-2.684 1.342-2.683.67-.67-.67v.67l-.672.671h0l.671.671v1.342l-.67 1.342-.671.67h-1.342v.671l-.67 1.342-1.343 2.683h0l-.67 2.013v4.025l.67.67.671.671h0v.671l.671.67h.671l-.67 2.013v1.342l.67 1.342v.67h-1.342l.671 2.013.671 2.013h.67l1.342-1.342 2.013.67-1.342 2.013-1.341 1.342.67.67.671.672-1.341 3.354h.67l.671 1.341.671.671h2.683l1.342.671.67.67 2.684.672 1.342-2.684h1.342l.67-1.341v-.671h.671v-1.341l1.342-1.342.67-.671 2.013-3.354 2.013-3.355h1.341l1.342-.67h.67l1.342.67v.671l.671-1.341 2.013-2.013 1.341-2.012-3.354-.671-4.025.67-.67-.67v-.671h-2.684v-.67l-1.341-4.697v-.67h.67v-.671l.671-.671 2.013-.671 2.012 1.342-.67 1.341v1.342l1.341-.67.67.67v1.342h.672l.67-.671.671-1.342 1.342.67h.67l.672-.67h2.683l-.67-.67-.672-.672 1.342-2.683v-2.012h-.67l-2.013-1.342-2.684-1.342-.67-.67h-.671v-2.013h-2.684v-.67l-.67-2.013h-.671l-.671-.671zM32.85 253.68l-.335-2.012-1.811.67-2.28-.67-1.074-1.342-.671-.67-.537.67.202.67.335.672 1.207 1.341 1.074 1.342h.402l.604-1.342h.738l.47 2.013-.202 2.012H29.43l-1.543 2.013.135.67.2.671-.67.671h-.872l.134-.67-.268-.671-.537.67h-.67l-.27.671.806 2.013 1.342 1.341 1.341-.67.872-2.013h.604l.537-.67.872-1.342 1.476-.671-.202 1.341-.268 1.342h1.073l.336-.67.335-.672.403-.67.805-.671-.671-3.354-1.878-2.013zM3.221 228.556L4.984 226l-1.368-3.415-1.328-.745-.15-.894 3.075.155 3.217.65 2.161 1.811-.387-2.632 1.71 1.976.216.905 2.008 1.818.966 2.482-.78 2.02-.355 3.816 1.26.344.929-.133.278 1.147 1.234.27 1.638 2.168-1.988.026-.723 1.207-2.802-2.326-.644-1.597-1.539-.145-3.17-1.234L6.298 233l-2.798.083z"/><path d="M3.5 233.083l-1.701-1.179-.609-2.423 2.031-.925zm206.584-88.077l-4.025-3.354-3.354-2.684h-2.684 0l-.67-.67-.671.67-1.342.671-5.367-.67h-4.695 0l-2.013 2.683-2.012 2.683-.671 2.012h1.341l.671.671-.67 2.013-.671 2.012.67 1.342v.67l-.67.671-.671.671-.671-.67-1.342-1.342h-.67l-.671.67-.671-.67v-.671h-2.013l-.67-.67-1.342.67-.671-.67V149.7l-4.696-3.354-4.696-2.012v3.354l1.342 2.683v3.354l-1.342 2.013v1.342l.671 1.341-2.012.671h-1.342l-2.012 2.683-.671 2.684.67.67h.671l.671-.67.671.67 1.342.671v-.67l.67-1.342 2.013-.67.67.67.672-.67h.67l.671 1.34.671 1.342-2.683 2.684-3.354 2.683-.671 2.013-.671 1.341-4.025 1.342h-1.342l-1.341.67-2.013 3.355v2.012l-2.683.671-1.342 2.013 1.342 1.341.67 1.342h0v1.342l.672 2.012-.671.67v1.343l2.012-1.342 1.342-1.342h1.342v-.67l2.683 1.341 2.012.67 2.684-.67h2.012v.67l1.342-.67-.671-2.012 1.342-3.355 4.025 1.342h1.341l1.342 1.342-.67 1.341h0l2.012 1.342 1.341-.67 1.342 2.012 1.342.67h1.341l2.013-.67.67.67v.671l.671-.67h2.012l.672.67h0l1.341-.67 2.013-.671 4.025 4.025 6.708.67v-.67l1.342-.671.67-1.342.671-2.012h1.342l.671-1.342-.67-.67v-.672l1.34-2.683 1.342-2.683 2.684-2.684 2.683-2.683.67-4.025.672-.67 1.341-.671h0l.671-.671h.671l1.342-.671h1.341v.67l.671 1.342 1.342-.67 1.342-.671 1.341-.671h0v-.671l2.013-.67 1.341-.672h2.013l1.341.671h0l2.013-2.012 2.012-.671v-.671l1.342-1.342h2.013l2.683-.67h2.683l.671-.671.67-1.342 3.355-1.342 2.683-2.012-.67-2.013-1.342-2.012.67-2.683h.672l.67-.671-1.341-.671h-1.341l-.672.67-1.341.672-1.342.67-1.342.671-1.341.671h-.671l-.671-.67-.67 1.34v.672l-4.697 1.341-4.025.671-.67-.67-.671-.671-20.125-12.075z"/><path d="M153.063 173.851l-3.354-.67-1.342 1.341-2.683 2.013-1.342-.671-1.341.67v1.342l.67.671h2.013l-.67.671-.672.67.671 1.342-1.341 1.342-.671 1.342-.671 2.012v2.013l-1.342.67h0-2.683v.671l-1.342-.67h-.67l-2.013 1.341-1.342.671 2.013 2.683 2.012 2.684-.67.67h0l-1.342.671-1.342.671-2.683-1.341-.671.67-.67 1.342-.672.67-.67.672.67.67.671.671.671 1.342h2.683l.671.67h1.341l.672.672 1.341.67v.671h0l.671-.67h1.342v.67l-.671 1.342.67.67h.672v2.684l.67.671-.67.67-.671.672 2.012.67-.67 2.013v1.342h.67v.67h-.67l.67 2.013 1.342.67.67-2.012.672-2.683h1.341l.671-.67.671-2.684 1.342-2.013h1.341l.671.671h1.342l1.341-.67 1.342-4.026 2.683-1.341 1.342 1.341 1.342.671h1.341l.671.671v.67l.671.672h1.342l.67-.671 1.342-.671.671-2.012.67-.671-1.34-1.342v-2.012l3.353-2.013 2.013-2.683-2.684-2.013-2.683-2.683v-.67h-2.012l-2.684.67-2.012-.67-2.683-1.343v.671h-1.342 0l-1.342 1.342-2.012 1.342v-1.342l.67-.67-.67-2.013v-1.342h0l-.671-1.342-1.342-1.341 1.342-2.013 2.683-.67v-2.013l2.013-3.354-1.342-1.342-.67-2.012zm-49.641 40.25l-1.342 1.342h-1.341l-2.013-4.025-1.342-2.684-.67.671-.671.671-2.013-1.342-.67-2.012h-1.342 0l-.671.67-.67 1.342-.672.671.671.671h0v1.342l-1.342.67.671 2.013v3.354l-.67.671-1.342.67 1.341 1.343 2.013 1.341.67 1.342.672.67h1.341l.671.672.67.67v.671l2.013 1.342h1.342l.67.67v1.342l2.013-.67h1.342l1.342.67.67.671 2.013-1.341 2.012-2.684v-1.341l-.67-1.342.67-2.683-.67-2.684-2.684-1.341-2.012-2.013z"/><path d="M88.664 204.71l-.671.67H86.65l-.67-.67-.672-1.342h-2.012l-1.342-.671-2.951 2.013-2.348 2.683.67 4.025-1.073.67-1.274.671.536.671.671.671-.335 1.342-.202.67 1.208.671 1.409.671.738 1.342.67 1.342h1.008l-.134.67.872.671 3.22-1.341 3.354-1.342 1.341-.67.671-.672v-3.354l-.67-2.012.67-.671.671-1.342h0l-.67-.67.67-.672.67-1.341.672-.671h0l-3.354-2.012zm71.108-138.191v.335l-1.342 1.006-2.013-.805-1.341-.47-.671.537-1.342.738-.67-1.073-.671-.067-1.342-.201v1.341l-2.683 1.342-2.013 2.683v1.341l-.67 3.355-.672 2.683-2.012.671h-2.683l-4.025 3.354 2.683 3.354 2.012 3.355v2.012l.671 2.013 2.013-.671.67.67h.671l.671.671V92.01l.671-1.342v-2.683l1.342 2.683v.671h-.671v3.354h1.342l.67 3.355h0-.67v.67l.67.671h.671v3.354l1.342 2.013 2.012 2.683 2.013 3.354 1.342 2.684 6.708 2.012 4.025-.67 3.354-1.342.67-.671v-1.342l1.342-1.341 1.342-2.013h0l-.67-1.342h0l-.672-.67.671-2.013.671-2.012h-.67 0-.672v-4.025h0l-.67-.671v.67h0l-.671-4.695v-7.379h0l-.671-1.342h-.67 0l.67-.67-.67-.672v-.67h-1.342l-.671-2.013-.671-1.342-1.342-.67-1.341.67-.671-.67h0l1.341-.671 1.342-1.342-1.342-.67h-.67.67l.671-.672-.67-.67-1.342-.671h.67l.671-.671-.67-.67v-.672l1.341 1.342 2.013.67-.671-2.012-.671-2.683v.67h-.67 0-1.342v.672l-.671-.671h0v-.671l-.671-1.342v-.67l-.671.67v.671h-1.342l-.67-1.945v-.067zm-71.108 48.299l-1.342.671.67.671.672.67h1.341l.671.672h0-.67l-.672.67v.671h-.67v-.67 3.354l.67 1.341h1.342l2.013.671 1.341 2.683-1.341 2.013-2.013 1.342-2.683-1.342-.671-2.013.67-2.012-1.34-1.342-.672.671-.67-.67-.671-.672-.671-.67-.671.67h-.67v-1.341h0-.806l-.47.67-1.006.671h.336l-.805 1.342-1.208-.67-1.14.67H76.32l.671 2.013.537 1.341.67 1.342.604 1.342-.47 2.683 1.007 2.012h1.006l1.342-.67.94.67.67 1.342 1.342-.67h2.012v.67l1.342.67 1.341-.67 1.342-.67v.67h0l.67.67.672.672v2.683H94.7l.67.67v.672l1.343 2.012v1.342l.67 1.341 1.342 2.013h2.013l1.341.67.671-.67.67-.67h1.343l.67-.672h-.67v-.67l.67-.671v-2.012l2.013-1.342 2.012-.671 1.342-1.342v-.67l.67-.672h2.013l1.342-.67-.67-.671h0l-.672-2.684-.67-.67h-1.342l-1.342-1.342-1.342-1.342h0-.67v.671l.67 1.342h-1.341l-.671-.671h-4.025 0-.67l-.672-.67-1.341 1.34-2.013.672-1.341-2.013H94.7l-1.342-.67-.67-.672h.67l.671-1.341.671-1.342 1.342-3.354 2.012-2.683v-2.012l-1.341-2.013v-2.013h-4.696l-3.354-.67z"/><path d="M124.888 152.385h-.67l-1.342-.671v-1.342l-.67-.67h-.672v-2.684l.671-1.342.67-2.012.672-2.012-2.013-2.013-1.341-1.342h-1.342v.671l-2.013.671-2.683.67-.67-.67-.672-1.342h-1.341l-.671.671v.671l-1.342 1.342-2.012.67-2.013 1.342v2.013l-.67.67v.671h.67l-.67.671h-1.342l-.671.671-.67.67-1.342-.67h-2.013l-.67 2.012v1.342h.67v.671h.67l.672.67v4.026h2.012l2.684.67v4.026l.67-.671 2.013.67v-2.012l.67-2.012.671.67-.67 1.342v2.683l2.012 1.342.671-.67h.67l2.013 2.012v3.354l2.684 3.354 2.683-.67v-.672l.67-.67 2.013.67 2.013.671.67-.67.671-.671v1.341h.671l.671.671v2.013l2.683.67v.671h0l.671.671 1.342.67.67 1.342.672 1.342 4.695 3.354h.671l.671-.67 1.342.67h.67l.671-.67.671-.671 1.342.67.67 1.342 1.342-1.342-.67-1.341.67-.671.671-.67h0-2.012l-.671-1.343v-.67l1.341-.671h1.342l2.683-1.342 1.342-1.341-.67-2.684-1.342-.67v-2.013h-4.025l-2.013-2.683-1.342-2.013-1.341.67h-2.013v-2.012h-1.341l-.671-.67-.671-.671v-.671l-.67-.67-.672-.672h-.67 0v-.67h-1.342l-2.013.67v-1.341l-.67-.671-.671-.671-.671-.67-.67-.672h-.672v-.67l-.67-1.342z"/><path d="M126.23 171.168l-.67-.67h-.672v-1.342l-.67.67-.671.671-2.013-.67-2.012-.671-.671.67v.671l-2.683.671-.671 1.342v.67l-4.696 2.013-4.025 2.683 4.696 2.684 1.341-.671.671-.671.671 1.342.671 1.341 1.342.671 1.341.671-.67 1.342-.671.67h2.012l1.342 2.013 2.683 1.342h2.683l1.342-1.342.67-.67 2.013 2.012v1.341h1.342l2.683.671 1.342-.67 2.013-1.342h.67l1.342.67v-.67h2.683l1.342-.671v-2.013l.67-2.012.672-1.342-.671-1.342-1.342-.67-.67.67-.672.671h-.67l-1.342-.67-.67.67h-.672l-4.695-3.354-.671-1.342-.671-1.341-1.342-.671-.67-.67h0v-.672l-2.684-.67v-2.013zm-48.702-44.275l-.537-1.341-.67-2.013-1.476 2.013-1.543 1.341h-2.08l-1.073 1.342.47.67.335.672-1.007 2.012-.939-.67.269-.672.2-.67h-.402l-.134.67h0-.67l-.537-.67-1.208.67h-1.274v.671h.268l-.067.671-.671 2.013-1.543 1.341-1.677.671.134.67.067.672-1.677 2.012-2.214 2.684h-.067l.067.67.537.671.671.671-.268.67-.067.672h.603l.872 1.341-.805 2.013-.536.67h1.006l.537.671h1.14l1.208 3.355v1.341l.335.671h1.409l.939 1.342 1.744-1.342 1.677-1.342.403-2.012v-1.342l.603-.67.604-.671-.335-.671h-.067l.939-.671 1.073-.67-.134-1.343 1.207-1.341.336-1.342 2.012-.67.134-.671.068-.671h.805l.603-.671-.67-2.013-.47-2.683 3.354-1.342-1.006-2.012.47-2.683-.604-1.342-.671-1.342zm150.668-21.466v-1.342h-1.341v1.342l.67.67-.67 2.684 2.012-2.013v-.67l-.67-.671zm15.43-14.759l-2.013-.67H239.6v1.341h-.67 0v1.341l-1.342-.67h-2.013v1.342l.671.67h0-.67v.671h.67-.67l-.672.671-2.012 1.342-1.342 1.342h0l-.67-.671v-.671l-.671-.67-1.342.67-1.342 1.342-.67 2.012v2.013h1.341v.67h0l.671-.67.67-.671v.67l-.67 1.342 1.342 1.342.67-.671h0l-.67.67-.671 2.684.67.671.671 1.342h-1.341 0l-.671-.671v.67l-.67.672h-.672 0v1.341l.671 1.342h1.342l.67 1.341v1.342h1.342v-.67h.671l.671 1.341.67 1.342.672.67v-.67h0v-.671l.67-.671v1.342l1.342 2.012h0v-1.342h0l.671.671h1.342l-.671-2.012-.671-2.013v-3.354l.67-3.354.672-2.683 1.341-2.684h.671l.67-1.341.672-1.342.67-1.342h0l.671.671 1.342-.67v-.671l-.67-.671h.67l1.342.67.67-.67v-.671h-.67l-.671-.67 2.012.67v-1.342h1.342l-.67-2.012-1.342-1.342v-.67l-.671-.672h-2.012zm15.428-14.758l-1.341 1.342h0v.67h.67v.672l.671.67h0-1.341l-1.342.671h.67l.672.671h0v.67l.67.672h0l-1.341-.671-2.013-.671-.67.67.67 1.342h0-2.683l.67.671v.671h-.67l-.67-.67v1.341l.67 1.342-.67-.671-1.342-1.342-1.342.671v1.342h0v-.671l-1.342-.671-1.341.67-.671.672-.671-.671h0l1.342 2.012 2.683.671v.671h-4.025l-1.342.67v.672h2.013l1.341 1.341.671 1.342.671-.67h0v2.012l1.342.67h0l.67-.67v.67l.671-.67 1.342-.671-.67-1.342h0v-1.342h0l.67 2.013h1.342l.67-.67-.67-1.343-.671-.67v-.671h0l1.342.67.67 1.342h0v.671l.671-1.342.671-1.341-.67-.671v-.67h.67v-.672h.67v3.354l.672-.67h0l.67-.671 1.342-.671 1.342-2.013-.671-.67v-.671h.67v1.341l1.342.671h0l.671-.67.671-1.342v-.671.67l.671 2.013.67-.67v-1.342h.672v1.341l1.341-.67v-.671l.671.67.671-.67h0v-.671l-.67-.67h1.34l.672-.672-.671.671 1.341-.67 2.013-.672h0v.671l.67-.67h.672l2.012-.671h11.405l6.707-.671 2.013-1.342 1.342-2.012 1.341-1.342-.67-2.012-3.355-1.342-4.025 1.342v.67l-.67.671h-.671v-.67h-8.721l-2.013-2.013-1.341-.67-.671 1.34-2.013.672h.671v-.671h-1.341l-1.342.67-1.342-.67h-2.012l-1.342.67h-1.342v.671h0-2.012v1.342l-.67.67-.672-.67-.67-.67-.671.67-.671.67-1.342.672h0v-.671l-.67-1.342zm33.542-49.037v-1.678l-1.342-.335-.67 1.409v2.012l2.012-1.408zm-7.38-5.97l-.67 1.676 2.012.336.671-2.013h-2.012zm7.38.267l2.012 1.14.671-.67-1.342-1.476-1.341 1.006zm-3.354 3.019v.537l1.341-.872h-.67zm-.671-5.366v-.537l-.671-.067v1.61h0l.67-1.006zm.67.738l-.67.536v1.409l1.342-1.342v-.402l-.671-.201zm4.026.067l.67-.537-2.012-2.214-.67 1.14.67 1.141 1.342.47zm-14.088 2.884v.47l.671.402.67-.939v-1.073l-1.34-.067v1.207zm.671-4.025l-1.342.872.671.805.671-.738v-.939zm-5.367-9.727v.872l.671.134v1.409l2.013-.067 1.341-.402.671-.135v.067l.671.135.67 1.677.672-.537v-1.476l-.671-1.409h-1.342l-1.341.135-.671-.067-.671-.135-1.342-.603-.67.402zm10.734 2.885v-.403l-.671.201-1.342.269-.67.268v1.543l-2.684.067-2.012-.537v.47l.67.604h-.67l-.671-.336v1.074h-.671v-1.14l-1.342-.202-.67.94v1.005l1.341-.067v.872l-.67.403-.672.402.671.202.671-.067.67.536.672-.603h0v.402l.67.067h0l.671-1.006-.67-.738v-.067l2.012.201.67.67.672-.469 1.341-.402 4.025-.201-.67-1.41-1.342-.469v-.134l.67-.47.672-.067.67-.67v-.269h0-1.341v-.47zm2.012-1.812l-.67.604.67.201 1.342-.268V9.7l-.671-.336-.67.47zm24.15 7.111l1.342 1.208.67-1.074-1.341-1.274-.67 1.14zm-5.367 10.331l1.342 1.275 2.683.134 2.013-1.744v-.135l.67-2.28-1.34-.671-.672 1.006-.67.872-.671-.134-2.013.268-1.342 1.409zm-9.391 4.293l-.671-.805-1.342 1.14 1.342 1.007.67-1.342zm0-5.366l-3.354-.403v3.556h.67v-.403l.671.067.671-.268-.67-.47v-.402l2.012.268.67-1.14zm2.683-.671l-.67.67v1.612l.67.134v-.067l.67-.067v.67l.672.94 2.012-.671 2.013-1.543.67-1.006v-1.074l-.67-.402h-1.342l-1.342-.872-1.341-.336-1.342 2.013zm-1.342-3.623l.671 1.007 1.342-.403-.67-1.006-1.343.402zm-1.341 1.745l-.671-.336-.67.738.67.201.67-.603zm0-5.702l-.671-.805-.67-.671-.672-.671v-.671l-.67.201-.671.47.67 1.409.671 1.677.671 2.012 2.013 1.073-.671-4.024zm1.341-.47l-.67-.805-.671.067.67 1.409v1.543l.671 1.207.671.134v-2.75l-.67-.805zm2.013.134l.67-.805-1.34-.067-.672.738 1.342.134zm4.696 5.77l1.341-1.275-1.341-.604-2.013 1.073 2.013.805zM304 15.602l-.67.402v1.073l.67-.402v-1.073zm2.683-4.965l-1.341-.268v-.201l-.671.067v.604l-.671.67 1.342.604 2.012-.872-.67-.604zm-5.366 2.147v1.946l2.012.335-.67-2.28h-1.342zm-3.355 1.476v-.805l-.67.268v1.61l1.341.671h2.013l.67.134v-.134l-.67-1.811-2.013.604-.67-.537zM169.163 119.514h-.67l-.672.671h-2.012l-2.012.67-1.342-.67-.671-.67-2.012.67h-2.684l-2.683 2.012-.67 2.684-.672 2.683h-.67l-.671.67.67-.67h0l-.67-.67-.671-.672v.671h0-.671l-1.342-.67-.67-2.013-1.342-2.013-1.342-.67-.67.67v-.67l.67-.671h1.342l-.671-3.354-2.013-2.684-1.341.671-1.342.671-.67 5.367h.67l1.342.67-1.342 2.013-2.012 2.012h0l-.671-.67h-.671v.67l-1.342-2.012-1.341-2.683-1.342 1.341-1.342.671-.67-.67-.671-.672-.671 2.013-.671 2.012-.67 1.342-1.342 1.342.67 2.683 1.342 2.013-1.342 1.341-1.341 1.342v.67h0l-.671 2.013-1.342 2.013h0l-.67-.671-.671.67-.671.672-.671 2.012-.67 2.012-.672 1.342v2.683h.671l.67.671v1.342l1.343.67h.67l.671 1.342v.671h.671l.67.671.672.67.67.672.671.67v1.342h2.013l1.342-.67v.67h.67l.671.671.671.67v.672l.67 1.341h.672l1.341.671v1.341h2.013l1.341-.67 1.342 2.013 2.013 3.354 1.341-.671h2.684v2.683h1.341l.671 2.684 3.354.67.671 1.342 1.342 1.342 1.341-.671h1.342l4.025-1.342.67-1.341.672-2.013 3.354-2.683 2.683-2.684-.67-1.341-.672-1.342h-.67l-.671.67h-2.683l-.671 1.343v.67h-1.342l-.67-.67h-1.342l-.671-.671.67-2.684 2.013-2.683h1.342l2.012-.67-.67-1.342v-1.342l1.341-2.013v-3.354l-1.342-2.683v-2.683l4.696 1.341 4.696 3.354v2.013l.67.67 1.342-1.34.671 1.34 1.342-.67h.67v.67l.672.672.67-.671h.671l1.342 1.341.67.671.672-.67.67-.671v-.671l-.67-.671.67-2.683.671-2.013-.67-.67h-1.342l.67-2.013 2.013-2.683 2.013-2.684-1.342-1.341-1.342-.671h-1.341l-1.342.67v.671h0-1.342v-.67l-.67-.671-.671-1.342-2.013-4.025-2.683-4.025v-2.012l-3.354 2.683.67-1.342-.67-.67-.671-.671-.671.67.67-.67 1.342-.671-2.683-5.367zm120.75-6.708v-.671h-1.342l-3.354 1.342v2.012h0l2.683.671 2.013-.67v-2.684zm8.72 16.77v-2.683l.671-2.012v-1.342l-.67-.67-.672 2.012-.67 3.354-2.013 2.012-3.354.671-.67.671h-.672l-.67 1.342-.671.67-.671.671-.671.671v.671l.67.67v.672l-.67 1.341.67 2.684v2.683l-2.012 2.012-1.341 1.342-.671 2.013-.671 1.341-.67 1.342v2.683l-.672 1.342-.67 2.012h2.012l.67.671.672.671 1.341-.67h1.342l4.025 2.683 2.012 4.025v.67l-.67.671.67 2.013v2.012h-1.341l-2.013 1.342-.67 2.012 2.683 2.684 2.012 1.341h-1.341l-1.342-.67-1.342.67h-.67v-2.012l-.671-1.342v-.67l.67-1.342v-1.342l.671-.67.671-.672h-.67v-.67l.67-.671V165.8l-.67-1.341v-2.684h-7.381l-1.341 2.013-.671 1.342v2.012l-1.342 4.696-1.342 1.342-2.012.67-.67 2.013-1.343 1.341-2.012.671-2.013 1.342-1.341-.67-.671.67-1.342 2.012h-2.012v-.67l-.671-.671-2.683-.671-2.013-1.342-1.341-.67-.671-1.342-.671-2.013v-2.012h0l2.683 1.342 3.354 1.341-.67.671h-1.342v.67l2.012 1.342h2.684v-1.341l.67-1.342h.671l1.342-.67.67-.671h.672v-1.342l2.683-1.342 2.683-1.341.671-2.013V165.8l2.013-1.341 1.341-2.013-1.341-2.683-.671-4.025 2.012-3.354 1.342-3.354 1.342-4.025.67-.671.671-.671 2.013-4.025-.671-3.354v-3.354l2.683-2.684 4.025-6.708v-2.012l-1.341-2.013-3.355-1.342-1.341-.67-1.342-.671h0-.67l.67-.671h0-.67v-.67l-3.355 4.024-3.354 4.696-5.367 4.025-4.025 2.012h.671l-.67 1.342h-.672l-.67 1.342h1.341l.671.67-1.342 2.013-1.341 2.683v1.342l-.671 1.342-.67-.671h-.672l-1.341 1.342-.671 2.012v.67h0l.67-.67h.671l.671 1.342.671 1.341h.671v1.342l-.67.67v3.355l1.34 1.342v.67l-4.024 4.696h-1.342l.671-.67v-.671l-.67-.671-.672-.671h0l-.67-4.696-1.342-2.012-2.013-2.684h.671l1.342 1.342v1.342-.671l-1.342-2.684-2.683-2.012-1.342.67-.67 1.342h-.671l1.341 2.013.671 1.342v1.341l-1.342 1.342-1.341 1.342-.671 2.683 1.342 2.012.67 2.013-2.683 1.342-3.354 2.012-.67.67-.672 1.343h-2.682l-2.683.67h-2.013l-1.342 1.342v.67l-2.012.672-2.013 1.341v.671l-1.341-.67h-2.013l.671 2.012v1.342l.671 1.341v.671l-1.342 1.342-.67 2.683h-1.342l-.671 1.342.67 1.341 2.013.671-.67 1.342.67 1.341h2.012l.672.671 1.341-.67h1.342v.67l.67.671.672-.67h.67l2.013.67 2.012 1.342.671.67 1.342.671-.67.671-1.343.671 1.342 2.013 2.013 2.012h0l1.341-.67 1.342-.672 2.012.671h.671l.671-.67h1.342v.67l.67.671h.671l1.342 1.342-.67.67-.672 1.342v2.013l.671 1.341 1.342 1.342v4.696l3.354.67 3.354-.67 1.342 2.012.67 2.013 1.342 1.341 1.342.671 3.354.671 2.683 2.013 3.355 2.012.67 2.013 1.342 2.012h4.696l1.342.67 1.341.672 4.025-1.342 2.684-1.342h.67v2.013l2.013 2.012h2.683l1.342 2.013 1.341 2.012h2.684l1.341 1.342 1.342 2.013 3.354-2.013 2.013-2.683.67-1.342v-.67l.671-.672.671-1.341-1.341-.671-.671-.67v-1.343l.67-.67h1.342l2.684-4.025.67-4.025-.67-2.013-1.342.671-1.342-.67-.67-1.343h-1.342l-.671-2.012h.67l.672-1.342v-4.695h0l-2.013-.671-.67-2.013v-4.696l.67-2.683-.67-3.354-.672-2.013-.67-.67v-.671l1.341-1.342v-.67l-.67-.672v-2.682l2.683-1.343 1.341-3.354.671-4.695.671-3.355-.67-.67-.672-.671v-.671l-.67-.67-1.342 1.34h-2.012 0l-1.342-1.34-2.013-1.343h0l-.67-2.012-.671-1.342v-2.012l1.341-.671h0v-.67l.671-.672 2.683-1.341 1.342-1.342 1.342.67h1.341l.671-3.353v-4.025l-1.341-.671-1.342-1.342v-2.683h2.012l1.342-1.342v-2.012l-1.342-1.342-1.341-1.342-.671-1.341-.67-1.342h-2.013l-2.013 1.342h1.342l.67 1.341v1.342l-2.683-.67-.67-2.013-2.684.67-.67 2.684.67 2.683 1.342 2.013h1.341l1.342 1.341-.67 3.354-.672-1.341-.67-1.342-4.025-2.012-3.355-2.684.671-.67 1.342-2.684-.67-1.341 2.012-2.013 1.341-2.012zm7.38 1.342l.67-.67v-1.342l-.67-.671-3.355 1.342 2.684 1.341h.67zm-6.709-10.062l-2.683-.671.67 2.012h.671l.671-1.341h.671zm3.354-3.354l.671.67.67-.67-1.34-.671-.672.67zM591.786 92.01h-.671l-.67 2.013 2.683 1.341 1.341-.67 1.342-1.342-.671-.671-.67-1.342h0-1.342l-1.342.671zm18.783-42.598l-2.012 1.342v.939l-.671.403-.671.536-.67 2.885.67 2.952.67 1.543 1.342.805.671.335h0l1.342-3.69 2.012-1.073.671-.67v-.806l1.342-2.884-.67-2.885-1.343.201-2.683.067zm45.617 13.954l-.671 1.073-.671.738-.671.67.67.135.672-.47 1.341.336 1.342.536v1.476h1.342l1.341.671h-1.341v1.342h-.671l-.671-.671-.67.67h-2.013v-1.34l-1.342-.672-2.683-1.945-.671-.134h-.671v-.067 1.475l-.67-.2v-.27l-.672-.871-1.341-.671-1.342.402-.67.671 2.012.336-.671.603-1.342 1.342-.67-1.342-.671-.737-.671.603-1.342.805-.67-.67-.672-.135-2.012.805-2.013 1.342-.67-.67h-.671l-1.342.67-1.342.67-.67-.67-1.342-.67-2.012.67-2.013 1.342h-3.354l-.671.67-1.342.671h0v-.67h.671v-.671h-.67l-1.342.67-.671.671-1.342.671h-1.341l-.671.67-2.013.672-2.012.67h-.671v1.342l-.67-.67h-.672 0l-2.683 3.354-.67.67-1.343 1.342h0-1.341l.67.67v.672h-1.341l-1.342.67h0l-.67.671-1.342.671-2.013 1.342-2.012.67.67.671.672.671.67 1.342v2.012h1.342l.67-.67 3.355 2.012.67 3.354-.67 1.342v1.342h-2.013l-1.341-1.342-2.013.67-2.012.672-1.342-1.342-3.354-1.342-.67.671v3.354l-1.342 1.342h-1.342l-1.342.67-.67.672-1.342 1.341-2.013.671-1.341-.67v.67h0l-.671.67-.671.672h-.67l-.672 1.341v.671l-.67.671-.671.67h0l.67 1.343.671.67h.671l.67.671h0l.672 1.342h.67l1.342.67v1.342l1.342 2.013.67 1.341-1.34.671-.672.671-4.696 5.367-3.354 4.696.671.67.671.671-.67 1.342v1.342l4.024 2.683 4.025 1.342v.67l-.67.671 1.34 2.684 1.343 2.012h2.012l1.342.67h0l.67 2.684h2.013l1.342-.67h2.012l1.342.67h3.354l2.012-1.342 2.013.671h3.354l1.342-1.341 2.012-1.342-.67-1.342 1.341-1.341.67-.671 1.343-.671h2.012v-.67l2.683-1.342h.671l1.342-.671 1.342-1.342.67-.67h0l1.342-.672h1.342l.67.671h0l2.013-.67 2.013-.671h1.341l.671.67h3.354l.671 3.355.67 4.025 2.684-.671h2.683l2.684.67 2.012.671h.671l.67-.67h.672l.67-.671v-2.012h.671l1.342-1.342 6.708-7.38.671.671 1.342.671 1.341-.67h1.342v.67l.671.67.67-2.012v-2.683l1.342-4.025 1.342-4.025h0-1.342v-.67l-.67-.672h.67v-.67l1.342 1.341h0l3.354-2.012 3.354-2.013-.67-.67v-2.684l-2.013-.67-2.012-.671v-1.342l-2.013.67-2.012-.67-3.355-2.013-4.024-2.012-.671 2.012-2.684.671-1.341-1.341-.671-.671-.671 2.012v.671h-1.342v1.342l-.67-.671.67-.671h-2.683v.67l.67 1.343-1.34.67-.672.671.671-1.341.671-.671v-.671l-.67-1.342h.67l4.025-2.012-.67-.671v-.671h2.683l2.683-2.012 1.342-4.025-.671-4.025-1.342-4.025h-2.012l-2.684-.671-.67-2.013.67-1.341h-.67l-.671-.671 1.341-.671.671.67v-2.683l1.342 2.013.67 2.012h1.342l.671-.67h.67l1.343 2.683.67-.67.671-.672 1.342-3.354 1.341-2.012 1.342-.671 2.013-.671 2.012 1.342 1.342.67 2.683-.67 2.013-1.342.67-.67.671-.672 2.013.671 2.012-.67v-1.342l-.67-.671v-.671l1.341 1.342.67.67.672-1.341-1.342-1.342h.67l.672-.67v-.671h-1.342l-1.342.67-.67-.67-.671-.671v.67h-.671l.67-1.341v-2.683l-.67-.671-.67-.671-1.343-.67h-3.353l1.34-.672 1.343-.67 1.341-1.141.671-1.476v-.47l-1.342.202-1.341-.47 1.341-.47 2.013-1.207-1.342-.872-.67-.67v-3.824l-.671.2-.671.537-.671.135-.67.067-2.013.536-1.342.47-3.354.067h-2.013l-1.341 1.677-.671 1.677-.671.537v-.067.201l.67.537v.536l-1.34-.402-.672-.671-.67.537zM552.878 336.192h0-2.013l-.67-.67h-1.342l-2.013-2.013-.67-.671h0-1.342l-1.342.67-1.342-.67h-1.341l-.671 1.342-.67.67h0-.672 0l-2.012 1.342h-.671l-.67.671-.672 2.012-.67 1.342v2.683l.67.671 1.342 1.342v1.342l.67 1.341.672.671.67.67h0l1.342.672 1.342-.671h.67l4.026-2.013h1.341l.671-1.341v-1.342l1.342-.67 1.341-1.342h1.342l1.342-2.684 2.012-1.341h2.684l2.012-1.342-.67-1.342h0l-.672-1.341-1.341.67h-2.683l-1.342 1.342h0zm-203.932-18.783h-1.342l-3.354 1.342-2.013-.671-.67.67h-1.342v-.67h-.671l-.67.67h-2.013l-.671 1.342-.671 2.013-1.342.67-1.341.671-3.355 4.696-4.695 2.683-4.696-.67-4.025-1.342-.671-1.342-1.342-.67-2.012.67-2.013.671v3.354h-2.683l-2.683-.67v4.695l.67.671h.671v2.683l1.342.671v1.342h-1.342L304 342.23l.67.67h.672v.671l.67 1.342 2.684-.67h2.683V342.9l.67-1.341 3.355.67 1.342-.67 1.341-.671h2.684v-.67l.67-.672h.671v.671h.671v.67h.671l1.342-.67v1.342l.67 1.341h2.684l3.354.671.67 2.013.672 2.683 2.683.67 2.683.672h.671l.67-.671 3.355 1.342h1.342l2.012.67.671.671.67.671 4.697-2.683.67-2.013.671-2.012h-.67l-.671-1.342v-2.012l-.671-.671 1.341-3.354 2.013-2.684h.67l.672-.67 1.341-1.342.671-1.342v-1.342l-.67-.67v-1.342l.67-.67v-3.355h.671v-1.342l-.67-.67h-2.684l-3.354-2.684-3.354-3.354zm285.773 23.479h0l-1.342.67h-1.341v1.342l-.671 2.684-.671 2.683.67.67h.672v-2.682l.67-2.684 1.342-1.341.671-.671v-.671zm4.025 4.696v-1.342l-.67.67-.672.672h1.342zm4.696-18.113l-.671-1.341h-.67l-.672 2.012-.67 1.342h-2.684v.67l.67.671-.67 1.342-.67 1.342v1.341l-.672 1.342v1.341l-.67 1.342.67.671.671-3.354.671-.67.67-.672v-1.34l1.343-1.342.67-2.012 1.342-1.342 1.342-1.342zm4.696-11.404h0l-.671.671-1.342 3.354v.671l-.67.67 1.34.672 1.343-4.696zm5.366-10.062l-.67-2.013v2.013l-.671 1.341v.671h0l1.341-2.012zm.671-9.392v1.342l.67-.671v-.67h-.67zm0-2.683zm.67-7.38h0l-.67-1.34.67.67v.67zm-.67-8.05l.67 1.342v.671l.672-.67-.671-2.013-.671.67zm2.683-12.745v-1.342h-.67l-.671 1.342h1.341zm-2.012 4.025l-1.342 2.683.671.671 1.342-1.342.67-2.012v-2.013l-.67-1.341-.671-.671-.671.67.67 1.342v2.013zm-55.679 33.541l-3.354-4.025-2.683-3.354-2.013-2.683v.67h-.67v-1.34l-1.342-.672-1.342-1.341-.67-3.354-1.343-4.025h0v-.671.67h-.67l-1.342-1.341-.67-1.342h.67l.67.671v.67h.672l-2.684-3.353-2.012-2.684v-1.341l-2.013-1.342-.67-.67v1.34h-.671l-.671.67 1.341.672 2.013 1.341v1.343-.67h.67v1.342h-.67v.67h0l.67.671-.67 2.013-.67-.67h-.672l-1.341.67v1.342l.67 1.341.671.671 1.342 4.696 1.342 4.696 2.683 2.012 3.354 2.683.67 2.013v2.683l1.343 1.342.67 1.342 4.025 12.075v.67l2.684 2.013 1.341 2.683.671 2.013v2.683l1.342 1.342.67 1.341 1.342 5.367 2.684 4.025.67-.67v-1.343l-.67-3.354.67-2.683.671.67h0l2.013-.67 1.341.67 1.342.672.67 1.341.672.671-1.342-3.354-1.342-2.683-.67.67-1.342-.67-1.342-.671-1.341-1.342-2.684-2.012-2.012-3.354-.671-4.025v-3.355l-.67-1.341v-1.342l.67-.67.67-1.342 3.355-.671 3.354 1.341 1.342.671.67.671-1.341-1.342-2.013-1.341-1.341-1.342-.671-1.342-4.025-4.025z"/><path d="M526.045 284.538l1.341-1.341.671-2.013h-1.342l-.67-.67-1.342-.672-.67.671-1.343.671h-.67l-.671-.67-2.013 1.34-2.683-.67-1.342 1.342H513.3l-.671.67v.671l-1.342.671-1.341 1.342v.67l-.671.672-2.013-.671-2.012-.671v.67h-2.683l-.671 1.342v.671l-1.342-.67h-.67l-1.342.67-2.013 1.342h-2.012l-.671-.671h-2.013l-2.012.67-3.354-.67-1.342-1.342-1.342-1.341-3.354-.671h-4.025l-.67-.67-1.342-.672h-2.684l-1.341-.67-1.342-.671-1.342-.671-2.683.67-2.683 1.342v2.684h.67l.671 1.341v.671l1.342.67 2.013.672-1.342.67H465v1.342l1.34 1.342h.672v-.671l1.341-.67 2.013-.672 1.341 2.013.671 2.012h.671l1.342-.67 1.341 3.354-1.341 3.354.67.67h.671l2.013 1.342-.671.671-.67.671v2.012l-.672 1.342h0l2.013 2.013 1.341 2.012h3.355l1.341-.67 1.342-.672h.67l.672-.67 1.341.67 1.342.671h0l.67-.67 2.013 1.341 2.013.67v-.67h4.025l.67.67v.672h.671l.671.67h.671v1.342h.67l1.343 1.342.67.67.671 2.684 3.354 4.025h.671v.67l.671.672v1.341l1.342 1.342 1.341 2.012.671.671.671 2.013h.67l.672.67v1.342l2.012 3.354 2.683-.67 2.684-.671h0l.67.67h1.342v.671h.671l.67-.67.672.67v-.67h.67v-.671l2.684 2.012 4.696.671h.67l.671-1.342.671-2.012.671-.67h0v-2.013l-.67-2.013v-4.696l-.672-.67h-1.341v-.671l-.671-.671-.671.67h-.67v-1.34h-.672l-.67.67v-4.024l.67-2.013.671-1.341v-.671l-.67-1.342 2.012-1.341 2.012-1.342.671-.67-.67-.672.67-1.341.671-.671 1.342-.671 1.341-.67v-2.684l-.67-1.342h0l3.354-.67h2.683l.67-.672v-1.341l-.67-1.342v-2.683l-.67-2.013-2.013-.67h0-.671l-.671.67-2.013.671h-1.341l-.671 1.342-1.342 1.341-2.683 1.342-1.342.671-.67.67h0-2.683l-1.342-2.012-1.342-1.341h-2.683l-2.013-.671v-2.683l2.013-1.342v-4.025l.67-.671.671-.67 1.342-1.342 1.342-1.342v-1.342zm-95.258 6.709h-1.342l-1.342-1.342v-1.342l-.67.671h-4.025l-.671-.67-.671-.672-.67 1.342-2.013 1.342h-3.355l-.67-.671h-.671 0v-.671h-.671l-1.342.67-.67 1.343h-.671l-.671-.671-1.342 1.341-2.012 1.342.67 3.354h1.342v1.341l1.342.672.67 1.341h-1.34v1.342l-1.342 5.367.671 5.366 2.013-7.379 1.341-2.683 2.013-.671-.671 8.72-1.342 9.392-.67.671-.671.671v-2.012l-.671-.671-.671 1.341-.67 1.342h2.012v1.342l-.671 1.341h-1.343l-1.342 2.013-2.013 2.683-8.05 3.354-.67 2.013-.672 2.012-4.695 2.684-2.684.67-.67.671-2.013 2.013h-2.683l-.671.67h-.671v-2.683l-.67-1.341-1.342-.671v-1.342l-.671-1.342-4.696-4.025-.671.671h-.67l-.672-1.341-.67-2.013-3.355-2.012-2.683-2.013-.67-2.012v-1.342l-3.355 2.683-2.683 2.013-.671-.671h0-.67v3.354l-.672.671v1.342l.671.67v1.342l.671.671 1.342.67 4.695 2.684 4.025 2.013h.671l.671.67 2.683.671 2.013.671v4.025l4.025 4.696 6.037 1.342 5.367-1.342 1.342-.67h.67l2.684.67 2.683.67h2.012l2.013 1.342 1.342 1.342h1.341l1.342.67v-2.682l1.342-2.013h1.341l1.342-1.342-1.342-.67-1.341-1.342.67-1.342 1.342-1.341h0l-.67-2.013.67-1.342h2.684l2.012.671h0l1.342-1.341 2.012-1.342h2.013l1.341.67.671-.67 1.342-1.342 1.341-1.341 1.342-.671 1.342-.671.67-2.013.671-.67h.671l1.342.67.67-1.341 1.342-.671 3.355-.67 3.354-2.684-1.342-4.025-1.342-2.683 1.342-.671v-.671l4.025-3.354 3.354-3.354 1.342-.671 1.341-.671h1.342l1.342-.67v-4.697l-3.354-2.683-2.013-1.342v-2.683h0l-.67-1.342h0v-.67h0l-.671-1.342v-.671h0v-1.342l-.671-.67-.671-.671h0-.671 0l1.342-.671-.671-1.342 1.342-1.341h.67l.671-.671-3.354-.671-3.354 4.025-3.354 1.342-2.684-.671-1.341.67zm-113.37 10.733l-1.342-1.342-1.342.671h-2.012l-2.013-2.013-2.012-2.012-.671.67v3.356l-.67 2.012-.672 2.684h2.013l1.341 1.341-.67.671-.671.671.67 1.342-.67 1.341h-.671l-1.342 1.342v1.342l.671 2.012-.67 1.342.67 1.342.67 2.012-2.682 2.013-2.684 1.341-1.341 1.342-1.342.67v2.013l-.67.671v.67l.67 2.013 2.012.671 1.342-.67 1.342-.672 2.683.671h2.683v-3.354l2.013-.67 2.012-.671.671-2.013 1.342-1.342.67-.67h1.342l1.342-2.684v-.67l1.342-.671 1.341-1.342v-.67l-.67-.672-.671-.67v-.671h0l-.671-.671 1.342-3.354-1.342-4.025-.671-4.025-2.012-.671z"/><path d="M303.33 284.538h-4.696l-.672.671-.67-.67h-.671l-1.342 1.34-.67.672h-.672l-.67-.671-1.342.67h-1.342l-.67 1.342v.671l.67 2.013v2.012l.671.671-.67 1.342-.671 1.341.67 1.342v1.342l-.67.67-.671 1.342 1.341 1.342.671 1.341.671.671h.67v1.342l.672.67.67.672.671.67v2.013l.671 1.342 1.342.67.67.671-.67.671-.671 1.342v.67h.67v.671l-.67.671.67 1.342v2.012l1.342 1.342.671.67h.671l.67-.67.672.67.67.672h.671l.671-.671v2.683l2.684-1.341 2.683-2.013-.67-2.012-.672-1.342.671-1.342-.67-2.012.67-1.342.67-1.342 1.343-.67v-.671l-.671-1.342.67-.67.671-.672-1.341-1.341h-2.013l.671-2.684 1.342-2.012-.671-.67v-2.684l.67-.671 2.013-2.012 2.013-.671v-.671l-.671-6.038-.67-.67-.672-.671.671-1.342h.67l-.67-.67v-.672h-2.683l-2.013 1.342-1.341-.67-1.342-.672-.67.671h0z"/><path d="M256.371 267.097l-1.342-.671-1.341-1.342-.671 1.342v.67l-.671 1.342v1.342l-1.342.67-.67 1.342.67 1.342v1.342h-2.683l-1.342.67-1.341 1.342h0-1.341v1.342l.67.67-1.342 1.342-.67 3.355.67 1.341.671 2.013v.67l-.67.671-.672 1.342-.67 2.013h2.683l.67-.671.672-.671.67.67h2.012l-1.34 1.342-1.342.671 2.012 4.025 2.683 4.696.671-1.342 1.342-.67.67.67v.671l1.342-.67h1.342l2.013.67h2.012l.67-.67h0l4.697-2.013 4.025-1.342v.671l.67 2.012.671.671v1.342h.671l.67.67-.67.672h-.67l3.353 4.025 2.013-2.013 3.354-2.012v1.341h1.342v-1.341h5.366l.671-.671 2.013-1.342.67-1.342.671-.67v-1.342l-.67-1.342.67-1.341.671-1.342-.67-.67v-2.013l-.671-2.013v-.67l.67-1.342h-3.353l-.672-.671-.67 2.012-1.342.671h-.671v-.67h0l-.67-.671.67-.671.67-.671v-4.696h-2.012l-.67.67v.672l-.671-.671h-4.025l-.588-2.683-4.779-.671-3.314-5.338-4.71-2.65.628-.693z"/><path d="M283.875 302.65h-2.683v1.342h-.671l-.67-1.341-3.355 2.012-2.013 2.013-2.683-4.025h0l.67-.671-.67-.671h-.67v-1.342l-.672-.67-.67-2.013v-.67l-4.025 1.34-4.696 2.013h0l-.671.671h0-2.012l-2.013-.67h-1.342l-.67.67-.671-1.342h-.671l-.671.671-1.342 1.342 4.696 24.15 2.684-.671v-1.342h1.341v-.67l.671-.671 1.342 3.354 1.341 2.683 2.684.671 1.341.67h2.683v-.67h2.013l.67-.67 2.684 2.012 1.342 2.683h2.012v-2.683l-1.341-1.342-1.342-1.342 1.342-.67 1.341.67v-.67h.671l1.342-.671h4.696l.67-.671.671-.671h1.342l.67-1.342.672-1.341.67.67.671.671h2.013l.67.671 1.342-1.341-.67-1.342.67-1.342 2.013-.67v-2.013l-.671-1.342.67-.67v-.671l-.67-.671h0l.67-1.342.672-1.342h-.671l-1.342-.67-.67-1.342v-2.013l-.672-.67-.67-.671-.671-.671v-1.342h-.671l-1.342-.67v-1.342l-1.341-1.342-2.013 1.342-.67.67h-1.342l-1.342-.67zM63.373 283.867l-1.408-2.012-2.013-3.354-1.073-.671-.47-.67-1.207.67-1.879 1.342-.939-.671-1.006.67h.402l-.134 1.342h-2.281l1.007.671-.336 2.013h.336l.134.67.067.671.94.671h.871l-.201.67-.067.672h2.28l.336 1.341-.201 1.342-1.476.67-1.677.672-1.14 2.012-.671 1.342h-2.415l-.269.67-.738-.67H46.67l-1.41.67-.804.672-1.006 1.341 1.341 3.354 1.744 2.684.47 4.695 1.476 4.025h1.61l1.744-.67h2.28l1.946-1.342v-6.038l.671-6.037 3.824-3.354 1.677-.671-.268-.67h-.94l.269-2.013.268-2.013-1.006-3.354 2.817-1.342z"/><path d="M50.36 259.047l-1.88-.671.403-.671-.2-.67h-.873l-.805.67-.134-.67.067-.672h-.67l-.47-.67-1.14-1.342-1.343-.67-.335 1.34-.335.672-1.208-.671-1.006-.671-.872 1.342-.537 2.012.604 2.013-.403 1.341.537.671-1.006 1.342-1.073.67-.269-.67h-.335l.067 2.683 1.073 1.342.872 2.012h.94l.872.671-.269.67H39.09l-1.14.672.268.67h.738l-.537.671-.805 1.342h1.543l1.745.67.335.672-.134.67 1.878 1.342h1.476l1.274 1.342.738.67h.336l-.537.671h-.67l1.676 1.342.269 2.013 1.476-.671 1.006-.671.268.67.537.672h1.207l.336-2.013-1.007-.67h2.28l.134-1.342h-.402l1.006-.671.94.67 1.878-1.341 1.207-.67-.537-3.355-1.542-3.354-.94-1.342-.402-1.342.268-1.341.202-2.013-.805-1.341-1.007-1.342-.536-1.342-.604-1.341h-2.147z"/><path d="M41.236 275.147l-.335-.671-1.745-.671h-3.421l-2.616 2.012 1.811 2.684.94 3.354h.603l.604.67 1.543-.67 1.476-.67.536.67.403.67.738-.67h.67l.537.67h.805l1.006-.67.805-2.013h.671l.537-.67h-.336l-.738-.671-1.274-1.342H42.98l-1.878-1.342.134-.67z"/><path d="M38.217 267.097l-1.073-1.342H36.07l.067.67-2.415 1.342-1.074-1.341-1.073-2.013-2.28 1.342-2.215 1.342 2.348 4.695 3.69 4.025 2.616-2.012h1.878l.805-1.342.537-.67h-.738l-.268-.671 1.14-.671h1.543l.269-.671-.873-.67h-.939l-.872-2.013z"/><path d="M41.84 242.947l-3.02-1.342-2.079-.67.336-.672.872-.67-.268-.671.134-.671-.738-.67h-.94v.67l-.2.67h-.068l-.603-.67-.336-.67-.939-.672h-.872l-.403-.67-.47-.671v4.025l.202 3.354-.335-.671h-.336l-.067-1.342v-.67l-.872.67-.94.671v-.67h.27l-.47-.672-1.275.671-1.207.671H25.74l-.872.671h-1.074l-1.81-1.342-1.141-2.012-.202 1.341.135.671-1.14-.67h-.94l.805 1.341.67 2.683-.469 1.342.134 1.342.47.67h.805l.067 2.013-.067 1.342 1.409 4.025.402 4.696.134 5.366h2.214l.872 1.342.537.67h.47l2.146-1.341 2.281-.67 1.073 1.34 1.074 1.342 2.415-1.341-.067-.671h1.073l-.067-2.683h.335l.269.67 1.073-.67 1.006-1.342-.537-.67.403-1.342-.604-2.013.537-2.012.872-1.342 1.006.67 1.208.672.335-.671.335-1.342.336-.67-.067-1.342h.402l.336-.671H43.18l-1.543-2.684.336-.67.268-.671-.268-.671-.134-.67h.47l.603-.672-.268-1.341-.805-.671zm-9.325 8.72l.336 2.013 1.878 2.013.67 3.354-.804.67-.403.671-.335.671-.336.671H32.45l.267-1.342.202-1.341-1.476.67-.872 1.342-.537.671h-.604l-.872 1.342-1.341 1.341-1.342-1.341-.805-2.013.268-.67.671-.671h.537l.268.67-.134.671h.872l.67-.67-.2-.671-.135-1.342 1.543-1.342h1.543l.201-2.012-.47-2.013h-.737l-.604 1.342h-.402l-1.074-1.342-1.207-1.341-.335-.671-.202-.671.537-.67.67.67 1.074 1.342 2.28.67 1.812-.67z"/><path d="M68.136 227.518H67.6l-.47.67-2.885.671-2.75-.67-1.543-1.342-2.147 2.012-2.817-.67-.47.67v1.342h.537l.403.67h-2.885l-.201.672.2.67-.536 1.342-.47.671-1.207 1.342-1.744.67-2.147-1.341-2.08-2.013h-2.615l-1.208-.67-1.677 1.341-1.811 1.342 1.14.67.604.672 1.945.67 1.476.671-.134.671h-.402l-.537 1.342-.403-.671h-.67l-1.208-.671h-1.073l-.134.67.268.672-.872.67-.336.671 2.08.671 3.019 1.342.805.67.268 1.342-.604.671h-.47l.135.67.268.672-.268.67-.336.671 1.543 2.684h1.141l-.336.67h-.402l.067 1.342-.336.671 1.342.67 1.14 1.343 2.416-.671 1.81-.671 2.885 2.012 2.08 4.696 1.207.671 1.007-.67.335.67h.268l.738-.67.537-1.342h3.421l.134-.671h.135l1.878-2.013.939-2.012h-2.012l-1.14-.671.402-.67-.403-.672-.47-.67h-1.073l.336-.671v-.671h-1.141l.134-.671.537-3.354-1.006-2.013-.671-1.341.335-.671h.671l.805-.671.872-.67 2.214.67 2.415-1.342-.134-2.012-.336-1.342-.402-.67h-.268l1.878-2.013 1.811-1.342-.67-3.354-.135-2.683zm61.448 2.012l-1.341-2.012-.671 2.012-1.342 1.342h-1.342l-.67.67h0l-2.013-1.341-1.342-1.342h-1.341l-1.342-.67h-.67l-1.342.67h-2.012l-1.343 3.355-1.341 2.012v.67l.67 1.343v1.341l.671.671 1.342.67v2.013h.671v2.013h0l.67.67.672 2.684.67 2.012 5.367-.67 2.013-2.013 2.683-1.342.67-.67h1.342l1.342-1.342 1.342-2.013 1.341-.67 1.342-.671 1.342-2.683 2.012-.671-1.341-1.342h-.671v-2.012l-.671-.671-1.342-1.342h-1.341l-1.342.67-1.342-2.012z"/><path d="M138.976 212.089h0l-1.342.67-2.012-1.341h0-2.684 0v.67h-.67 0-1.342l-1.342.671-.67-.67h-.671l-1.342.67h-.67v.671h0l-3.355.671v.67l.67.672-.67 2.012h-2.683l-.671-.67h-.671l-.67.67v1.342l2.682.67.671 1.342 1.342 1.342h3.354l.67 1.342v2.012l1.343 2.013 1.341 2.012 1.342 1.342 1.342-.671h1.341l1.342 1.342.67 1.341v1.342h.672l1.341 1.342 1.342 2.012h.67v.671h0l-.67.67v1.342l1.341 1.342 1.342-2.683.671-1.342v-.67h.67-.67 1.342l.67-.671.671-1.342v-2.012h0-.67.67l-.67-.671v.67-.67.67l.67-.67v-.671l.671.67 2.683-.67 2.684-1.342-.671-1.342-1.342-1.341h-.67l-.671-1.342h2.012l2.013-1.342-1.342-.67-.67.67v-2.683h.67l-1.342-.67-1.341.67.67.67v.672l-1.341.67-.671-.67h0-.67v-.671h-2.013l-1.342-1.342-.67-.67h-.672l1.342-.671.67-.671h-.67l-1.342-.671-.67-2.013h.67v-.67h-.67v-1.342l.67-2.013-2.012-.67z"/><path d="M136.963 205.38v-.67l-1.341-.671-.671-.671h-.671l-.67.67-.672-.67-.67-.671h-2.013l-.67-1.342-.672-.67-.67-.671-2.013-1.342h-2.683l-.671.67-.67-.67h-.672l-.67 1.342.67 1.341h-.67l-.671 1.342.67.67-.67 1.343h2.012l.67.67 3.355.671.67 2.013v.67l.672.671v1.342l.67 2.012h1.342l1.342-.67h2.012v-.671h2.684l2.012 1.341 1.342-.67h0l.67-.671.671-.671-.67-.67v-2.684h-.671 0l-.671-.671.67-1.342v-.67h-1.34l-.672.67h0z"/><path d="M122.876 205.38l-.67-.67h-2.013l-.671.67-1.342.671h0v2.013l.67 1.341h-2.012l-1.341.671v.671h-.671v.67h.67l-.67 2.684 1.342 2.013 2.012 1.341.67-.67h.672l.67.67h2.684l.67-2.012-.67-.671v-.67l3.354-.672h0v-.67h2.013l-.671-2.013v-1.342l-.671-.67v-.671l-.67-2.013-3.355-.67z"/><path d="M126.23 187.268l-1.342 1.342h-2.683l-2.683-1.342v.67h-.671l-1.342.672-.67 1.341-1.342.671-1.342-.67-1.342-.672-1.341 1.342-.671.67-.67-.67h-.672v1.342l-.67.67v.671h.67-2.012 0-2.013l-2.012.671-2.013 1.342-2.683.67v1.342h-.67v.671h.67l1.342.671v1.342l-.671.67 1.342 1.342.67.671h1.342l1.342.67 1.341 4.697 1.342 2.683 1.342-.67 1.341-.672v.671h.671l1.342-.67 2.012-.672.671.671-.67.671.67.671h1.341v-.67l1.342-.672h2.012l-.67-1.341v-2.013h0l1.342-.67.67-.671.671-1.342-.67-.671.67-1.342h.671l-.67-1.341.67-1.342h.671l.67.67.672-.67.67-.67 2.013.67 2.013 1.342.67-.671.671-.671.671-1.342.67-.67 2.685 1.34 1.342-.67 1.342-.671h0l.67-.671-2.012-2.684-2.013-2.683-2.683-.67h-1.342v-1.342l-2.012-2.013-.67.67z"/><path d="M102.751 183.243l-1.342-.67h-1.341l.67-2.684-.67-2.013h0l-2.684.671-2.012-2.012v-2.012l-2.013 3.353-1.341 4.025.67.671.671 1.342h0l.671.67 1.342 1.342-1.342 4.025 2.013 2.684 2.683 3.354 2.683-.671 1.342-1.342h4.696v-.67h2.012-.67v-.671l.67-.671v-1.342l-1.341-.67-1.342-.672v-2.012h-.67l-2.013-2.013-.671-1.341-.671-.671z"/><path d="M84.001 166.451l-.68.659h-.658l-1.403.68-1.891.659-1.126 2.699-2.55 2.677.998.659h.744l.595 1.36.68 1.339 2.061.658.68 3.358-.68.68-.531 1.339 1.424 2.018h.999v2.678l.658.659h-.658l-1 1.338.065 1.36h.935l1.338-.68.68-.68.659.68h.68l1.339-.68h4.016v-.658l1.339.658h1.36l1.339-4.016-1.34-1.339-.68-.68-.68-1.338-.658-.66 1.339-4.037 2.019-3.357.658-.659-.658-1.339-.68-1.338h-2.02l-1.338-.68-.659.68h-.68l-.658-.68-2.02-.68-2.018-.66-.659-1.338-.68-1.339zm4.08 8.947l.489.913c.242.193.297.343.808.276l-.213.66.531 1.678-.276 1.105-1.7.149-1.105-.744-1.105.595-.531-.871-.425.956-1.573.085-.722-.914-.978.723-.319-1.594 1.148-.361.361-1.424 1.211 1.339.893-.85 1.87.829.255-1.36.807-.425.574-.766z"/><path d="M78.668 177.205l-.67-1.341-.604-1.342h-.738l-1.007-.67-5.165 1.341-.67-.67-.604-.672-.604.671h-1.14l-1.007-2.012-1.409-.671-.603.67-.47.672h-1.073l-1.14.67.402 3.354.67 2.684-1.073 1.341-.67.671 1.542 2.684 2.684.67 2.683.671.47-.67.335-.671 1.14-.671h1.342l.268-.671h.202l1.543.67 1.61.672h.335l.537.67.738-.67.2-.671h1.745l.94-.671.804-.67.537-.672.67-1.341-.67-2.684-2.08-1.341zm-17.441 33.542l1.073-.67.134-1.343-.604-1.341-.603-.671-4.025-2.012-3.153-1.342-.738-1.342-.604-.67h-2.415l-1.274-1.342-2.415 4.025.872.67 1.341 1.342.336 1.342.47 1.341.066.671 2.214.671 2.147 1.342h-.269l-.47 2.683v2.013l.873.67.872-.67.805 2.683 1.61 2.683.47-.67.603-.671.671-1.342 1.006-2.013h.671l.671-.67-.134-1.342v-2.013h.94l.67-1.341h-.94l-.871-1.342zm391.697 62.387l-2.012-.67-1.342 1.341 1.342 1.342-.671.67h-.671v2.012h-.67v.672l.67 4.696h1.342v4.025h-.671l-.671-.671-1.342 1.341-.67.671-1.342-.67h-2.683l-1.342.67v1.342l-.671.67h.67l.672.672.67.67v1.342l-.67.67h.67l.671 1.343h0v.67h0l.671 1.342-.67.67h0l.67 2.013 2.013 1.342 3.354 2.683v5.367h-1.342l-2.012.67h-.671l-1.342.672-3.354 3.354-4.025 3.354-.67.67-.672.672 1.342 2.683 1.342 4.025-3.354 2.683-4.025.671-.671.67-1.342 1.342-.67-.67h-.672l-.67 1.341-.671 1.342-1.342.67-2.012.672-.671 1.341-1.342 1.342-.67.67-1.342-.67h-2.013l-2.012 1.342-1.342 1.341h-.67l-1.342-.67h-2.684l-.67 1.341.67 2.013h0v.67l-1.341.671-1.342 1.342 2.012 1.342 1.342 1.341-1.342.671h-1.341l-1.342 2.013v2.683l1.342 1.342 2.683 2.683 4.696.67 4.696.672h.67l.671-.671.671.67h1.342l1.341-.67 2.013-1.342 4.696-1.342 4.696-1.341 1.341-2.684 4.696-4.025 3.354.671 2.683 1.342h2.684l4.025-.67 3.354 2.012 4.696.67 1.341-2.012 2.013-2.013 2.012-1.341 1.342-1.342V342.9h0-.67v-.67l1.34-5.367 1.343-6.038 2.012-2.683 1.342-2.683-.671-.671-.671-.67v-1.342l-.67-.671-2.013.67-.671-2.012.67-1.342 2.013-2.012v-.67l.671-.672 2.683-1.341 3.354-2.013-1.341-2.012-2.013-2.013h0l.671-1.342v-2.012l.671-.67.67-.672-2.012-1.341h-.67l-.671-.671 1.341-3.354-1.341-3.354-1.342.67h-.67l-.672-2.012-1.341-2.013-2.013.671-1.341.671v.67h-.671l-1.342-1.34v-1.342h.67l.672-.671-1.342-.671-1.342-.671-.67-.67v-1.342h-1.342l.67-2.684-2.012-2.683-.67-2.683h-.671l-.671.67h0l-1.342-2.683v-4.025l-2.683.671-1.342-.67zm130.141 63.058h-2.012l-1.342-.67v-1.342l.67-1.342-.67-1.342-1.342-1.341-.67-.671h0l-2.013 1.341-2.013 2.013h0-1.341v.67l.67.672.671.67v.671l.671.671h2.684l-1.342 4.025-2.683 1.342v2.683l-2.684 2.013-3.354 1.341-.67-.67-.671-.671-.671.67-.671.671v-1.341l-.671-.671-.67.67-.672-.67h-.67l-1.342 2.012-.671 2.013v1.341l-1.342 1.342v7.379l-.67 1.342.67 1.341-.67.671-.671 1.342.67 2.012-1.341 1.342h-5.367l-2.012.671-.671 2.683-1.342.671-.67.67.67 1.343.671 1.341 2.013 4.025.67 4.025.671.671v.67l-.67 4.697-2.013.67-.67 1.342h.67l.67.671.672 1.342.67 1.341.671-1.341v-.671l-.67-.671-.671-.67h3.353v-1.342l.672-2.684 1.341-2.012-.67-.671.67-.671h.671v2.013l.67-.671.672-.671.67-.671v-.67l.671 2.012v1.341h.671v-.67h.671l.67.67.672-.67h0l1.341.67.671.671h0v-1.341l.671.67h0l1.342-.67 1.341-1.342 4.025-4.025 2.684-4.696.67-.67v-1.342h.671v-2.684l.671-2.012v-1.342l1.342-1.342.67-3.354L578.37 359l1.342-4.025 1.342-3.354.67-3.354.671-4.025v-3.354l.671-2.683v-2.013zM668.3 201.848l1.776-.593 1.582.989 3.462-.396-1.187-1.187-1.484.495-2.274-.791.296-.99-1.879 1.286zm8.931-3.598l1.745.038.592-.386 1.782-.158-.148-.346-4.154.395zm-31.108-17.69h-1.342v8.049h.671v-2.012l.671-1.342v-1.341l.67-.671.672-1.342zm2.683-42.263l-.67.671v2.013h-1.342l-.67.67-.672.671-2.012-.67-2.684-.671h-2.683l-2.683.67-.671-4.024-.67-3.355h-3.355l-.67-.67h-1.342l-2.013.67-2.012.671v-.67h-2.013l-1.342.67h0l-.67.671-1.342 1.342-1.342.67h-.67l-2.684.671v.671l-.67.671h-1.342l-1.342.67-.67.672-1.343.67.671 2.013.671.67 1.342 2.684v2.683l1.341 2.013 2.013 2.012v1.342l.67 1.342v.67l.672 1.342 1.341 1.342 2.684 1.342.67 2.012-.67.67.67.672h.671v2.012l.671.671.67 1.342h.672l.67-.671v-.671l.671.67h1.342v-2.012h-2.012l-1.342-2.683v-1.342l-.671-.67-.67-2.013 2.012-1.342.67-2.012h3.355l-1.342 1.342-.67 2.683 1.34 2.012 1.343 2.013v1.342l.67 1.341h1.342l.67 2.013v1.341l.672.671.67.671-.67 1.342-1.342 1.341h0v2.012l-.67.672-.672 1.341v2.013l.671.67-.67 4.026v3.354l-.671.67v.671l-.671 2.684v2.683l.67.67.671.672v.67l-.67.671v4.025l-.671 2.684-.671 2.683-.671 1.342-.67.67v2.013l-1.342.67-1.342.672 1.342.67 1.341 2.013v4.025l-.67 3.354 1.341 4.025 2.013 4.025 9.391 12.746 12.075 12.075 2.013 3.354 2.683 2.683 2.012 1.342h0l.671-3.354v-3.354l.671-.671.67-2.013-.67-6.037-1.342-1.342h-.67v-1.342l-.671-1.341h-.671l-.671-.671.67-.67 1.343.67h0l2.012-4.696 1.342-.67h.67v-.671l-3.354-2.684-1.341-4.025v-3.354l2.012-3.354h.671l.67.67 1.342-2.683v-2.012l-2.012-1.342-2.012-1.341-2.013-4.696.67-4.696v-.67l-.67-.672.67-1.341.672.67v2.013h1.341l.671-2.012-3.354-2.684v-.67l-.67.67-.672.671-2.012-2.012-1.342-2.013v-2.012l-.67-2.013h-3.354l-.672.67.671.672-1.341.67-1.342-.67-2.013-6.038v-4.024l-.67-.672h.67v-.67h0-.67v-2.012l-.671-.672h-.671l-.67-3.354 1.34-2.683.672-.671-.671-.67h2.012l1.342.67.67-2.012-1.34-.671v-.671l1.34-2.683.672-2.684.67.671 2.684 4.025v-4.696l.67-3.354 2.013-4.025 2.683-1.342 3.355-1.341 2.683 1.341h2.012l-.67-2.012-1.342-2.013.67-1.341.671-2.013v-3.352l.671-.672-.67-1.341h-.671l.67-.671h.671l-.67-.671-.671-.67h.67l.671-2.013-.67-.671h-.671l.67-.671.671-.67v-2.013h-.67v-1.342h.67l.671-1.342v-1.341l.671-.671-.67-.67v-.672h-1.343l-1.341.671-1.342-1.342-.67-.67-6.709 8.05z"/><path d="M593.128 146.347h0-.671l-1.342.671h-2.012l-.671-2.683h0l-1.342-.671h-2.012 0v1.342l-1.342.67-.67 2.013-.672 1.342h-.67l-1.342-.671-.671.67-.67.671-2.013.671-2.684.671v1.341h-2.012v1.342l.67 1.342-.67 1.342-.671 1.341v2.013l1.342.67-1.342 2.013v3.354l1.342 1.342 1.341.67-.67 1.343v.67h.67v1.342h-1.341l-.671 2.013-.671 1.341-.67.671-1.343.67v.672l-.67 1.341-2.013-.67-2.683-1.342-.671 1.341-1.342 1.342h-1.341l-1.342.671 1.342 2.012-.671 2.013-.671.67-.67-.67-.672.67-.67.672-1.342.67h-1.342 0l-.67 2.013-.671 2.683.67 6.038 1.342 1.341 2.013 1.342v.67l-.671 1.343.67.67v1.342l-.67 1.342v2.683l3.354-.67 2.683-.672 4.025 2.684 2.013 4.025h-.671v2.012l.67.67-2.012.672v3.354h4.696l2.683 1.342 2.013 2.012v2.012l2.012-.67h.671l1.342-1.342 1.341-1.342h1.342l2.013-.67h0l-.671-.671h-.671 0v-1.342h.67v-2.683l2.013-.671 2.013-.67h2.683-.67v.67h1.34v-1.342l2.013-1.341 1.342.67 1.342.671 1.341-.67h.671v.67h-.67l-1.342 1.342-1.342.67.67 2.013h.672l1.341-.67 1.342-2.013.67-.67h1.342l1.342-.672h0v-2.012l.671-1.342h0l2.012-.67h1.342l.67-.672v-1.341h2.013l-.67-.671h.67l.671-.67h0l-.67-1.342-1.342-.671-1.342.67-.67.671v.671l-.672.671h-.67v-2.683h-.671l-.671-.671v-.671l.67-.67h-.67V198l1.342-2.683.67-3.354-.67-.671v-2.683l.67-1.342h0l-.67-1.342-.671-1.341 1.341-2.684.671-2.012h1.342l.67-.671 2.684-4.025h2.013l1.341.67.671-2.012v-1.341l1.342 1.341.67 1.342v2.683l.671.671.671.671v.67l.671.672.67-.671.672-.671.67 1.342.671 2.012 1.342-6.708 1.342-7.38h-.671l-.671-1.341-.67-.67v-2.013h-.672l-.67-.671v-2.683l-2.684-1.342-2.012-1.342v-2.012l-.671-1.342v-1.342l-2.013-2.012-1.341-2.013v-2.683l-1.342-2.683-1.342-.671-1.341.67-1.342 2.013h-.67 0-.672 0-2.012l-2.683-.67-2.013 1.341h-2.012l-1.342-.67h-2.012z"/><path d="M412.004 120.185h-1.342v2.012h-.671 0l.67 1.342 2.013 1.342 1.342-.671.67-1.342-2.682-2.683zm69.766-8.72l-1.342-2.013-2.012-.671 1.341 1.342 2.013 1.341zm-6.709-15.43v-2.683l-.67-.671-1.342.67 1.342 2.013v1.342l.67-.67zm16.771 6.708l.671 2.684.67.67h1.343v-2.683l-2.684-.67zm11.404 8.05l1.342-2.683v-.67l-.67-.672-3.355-2.012h-3.354l-1.342 2.012v2.684l-.67 1.341-.671.671-.671.671h1.341l1.342-.67 1.342-.672h2.012l3.354-.67zm-4.695-25.491l.67-.671-3.354-.67-2.683-.672-.67.671-1.343.671-2.683-1.342-2.012-.67v.67l.67.671h0-.67 0l-.671.671v.67l.67 1.342v.671l.671.671h0l-2.012-.67-2.013-.672-1.341-.67h-.671l-.67-.671v-.671l-.672.67-.67 1.342-.671 1.342-.671.671-.671.67.67.672v2.012l-.67 1.342h.67l.672.67v1.342l.67 1.342 1.342 1.342 2.013.67.67 1.342.671.67h3.354v-4.024l.671.67.671.672.67-.671.672-.671 2.683-2.013h2.683l.671-.67.671-.671.67-.671-1.34-.67h-1.342l-2.684-2.013-1.341-2.684 2.012-2.012h0v.67l4.025 5.367 2.013-2.683-.671-2.683.67-.671zm16.1-4.025h0l-.671.67-2.013-.67-2.012.67v.671l-.671.671-1.342-.67v-.671h-2.012l-1.342.67v1.342l-.67.671-1.342-1.342v-.67l-.671 1.341.67 2.683 2.684.671 3.354.671 4.025-1.342 2.683-2.683v-1.342l-.67-1.341zm44.274 24.15l-10.733 6.708-3.354 4.025-2.684 1.342-2.683-1.342-2.683-1.342h-3.354l-2.684-.67v.67l-.67.671h-1.342l-.671-.67.67-1.342 1.343-.671-1.342-1.342-2.013-1.341-2.683.67-2.012.671-2.684 5.367-2.683 4.696h-.67v-1.342h0l-.672-.67 1.342-.672.67-.67-.67-.671v-1.342l1.342-.67.67-1.343-1.341.671-3.354 2.013-.671.67-.671.671-.67-1.341 2.012-2.013h.67l2.013-1.341 2.012-.671h0l-7.379.67-7.379 2.684h-3.354l-1.342.67.671.672 1.342.67-.671 2.013-2.012.67-1.342 3.355.67.67 1.342-.67v1.342l.671.67.671 1.342v1.342l1.342.67v1.342h-1.342v1.342l-.67-.67-.672-.67h-.67l-.671.67h-1.341 0v4.025l-2.684-1.342-4.696-.67-2.013 2.683-2.683 2.012-2.683-.67-2.013-1.342-.67-1.342 1.341-.67h0l-1.342-.671-.67 6.037-.671 7.38-.671.67-.67-.67-.672-.672h0v.671h-1.341l-.671-.67v-.672h-2.013l-1.341-2.012-1.342-2.012h-.67l-.672-.671.671-.671.671-.671-.67-1.342-1.342-.67h0l.67.67v.671l-.67.671-1.342-1.342-.67-1.341-3.355-2.013-1.342-.67h2.013l1.341 1.341 1.342 1.342h2.013l1.341-1.342-.67-2.012-1.342-1.342v-2.683l-.671-1.342v-.67l-1.342-1.343h-1.341l-4.025-3.354-1.342.671-1.342.67h-3.354l-2.012-1.34-2.684-.672v.671l-.67.671-1.342 3.354.67 2.684v2.683l-1.341-.67h-2.012 0v.67h-1.342l-1.342.67-.67.672-2.013-.671-1.342-.671H432.8l-1.341-.67v-1.343l1.341-1.341-.67-.671h-5.367l-1.342-.67-.67.67h-.672l-1.341-.67h-1.342l-.67.67-.672.67-1.341.672-2.013.67v2.012l-1.341-1.34.67-1.342-.67-2.013-1.342-1.342v2.013l-.67.67h-2.013l-2.013-1.34-.67.67-.671 2.012-1.342 1.342.67.67h.672v2.013l.67.671-.67 2.684.67 2.683.671.67v2.013l.671.671 1.342.67 1.341 1.342.671 2.684v2.683l1.342 2.683.67 2.013v.67l-2.683 2.013-2.683 2.013-.67 2.012v1.342l-.672.67-1.341.672v2.683l-1.342 2.012h-1.342l-2.012-.67-2.013.67-1.341 1.342h-1.342l-1.342-.67v.67h-.67l-.671 1.342v.67l.67 2.684 1.342 2.012v9.392l-.67 7.38-2.013 1.34-1.342 1.342.671.671.67.671v4.696l.672 1.342v3.354l.67 1.341 1.342 1.342 1.342 1.342-.67 1.341-.672.671-1.341 2.013v2.012l-1.342 2.013 1.342 2.683h1.34l.671.67.67.672 2.684.67h4.696l.67 1.342.672 2.013-.671.67-1.342 2.013 2.013 1.342 2.683 1.341.67 4.696v3.354l1.343 1.342.67 2.012-.67 2.013-1.342.67.67 3.355 2.013 2.012-1.341 3.354-1.342 4.025v2.684l-.671.67-.67 3.355.67 2.683h1.342l3.354-.67.67-1.343 2.013.671h.671v-.67h.67l.672.67.67-.67h2.013l.67-.671 1.342-1.342v.67l1.342 1.342.67.671-.67 2.013 3.354-3.354 2.684-4.025h1.341l.671-1.342.67-2.012 1.343-.671h1.341l2.013-2.013h2.683l2.013.671 1.341 1.342 1.342.67v1.342l.67.671v1.342h3.355l3.354.67.67.671v1.342l.672 1.342v2.012l.67 1.342.671.67v.671l.671 1.342v4.025l1.342 2.683h0l.67-.67h.671l.671 2.683 2.013 2.683 2.683-1.341 2.683-.671 1.342.67 1.342.671 1.341.671h2.683l1.342.671.671.67h4.025l3.354.672 1.342 1.341 1.342 1.342 3.354.67 2.012-.67h2.013l1.341.67h1.342l2.013-1.34 1.341-.672h1.342l.67.671.672-.67v-1.342h2.682l.672-.671 1.341.67 2.013.672.67-.671v-.671l1.342-1.342 1.342-.67v-.671l.67-.671h2.013l1.342-1.342.67-3.354v-2.683l1.342-.671.671-.671v-1.342l-.67-1.341-1.342-.671-.671-.671h-1.342l.671-1.342 1.342-.67v-2.013l.67-.67.671-.672-2.012-1.341-1.342-2.013h2.013l-.671-2.683.67-2.013.672-4.025.67-1.341 1.342-1.342h1.342l3.354-1.342 3.354-1.341.67-.671v-1.342l.672-1.341h.67l.671.67h.671l1.342-.67h0l3.354-2.013.67-2.683v-.671l.672-.67 1.341 1.34.671-.67-.67-2.012-.672-1.342-1.341-2.683-.671-3.355-1.342-2.012.671-2.683v-.671l.671-.671v-.67l.67-.672v-1.341l1.342-.671.671-.671v-4.025l.671-4.025h2.683l3.355 1.342h1.341l.671-.671.67.67.672.671 1.341-2.012 1.342-1.342h1.342v.671l.67-.67.671-.672.671.671 1.342 1.342.67-2.013v-4.695l.672-1.342v-1.342l-.671-.67.67-1.342v-.671l-1.341-1.342-2.013-1.341-.67-6.038.67-2.683.671-2.013h1.342l1.342-.67.67-.671.671-.671.671.67.67-.67.672-2.013-1.342-2.012 1.342-.67h1.341l1.342-1.343.67-1.341 2.684 1.341 2.013.671.67-1.341v-.671l1.342-.671.671-.67.67-1.342 1.342-2.013h.671v-1.342h-.67v-.67l.67-1.342-.67-.671-2.013-1.342v-3.354l1.342-2.012-1.342-.671v-2.013l.67-1.341.672-1.342-.671-1.342v-1.341h2.012v-1.342l2.684-.672 2.012-.67.67-.671.672-.671 1.341.67h.671l.671-1.341.67-2.013 1.343-.67v-1.342h0l-1.342-2.012-1.342-2.684.671-.67v-.671l-4.025-1.342-4.025-2.683v-1.342l.671-1.342-.67-.67-.672-.671 3.354-4.696 4.696-5.367.671-.67 1.342-.672-.671-1.341-1.342-2.013v-1.341l-1.341-.671h-.671l-.671-1.342h0l-.67-.67h-.672l-.67-.671-.671-1.342h0l-.671 1.342v1.341h-.671v-.67h-.67v3.352l-.672-1.341-1.341-1.342-2.013.671h-2.683l-.671-2.012-1.342-2.684-7.379-2.012zm-65.741 28.175l1.342.67 1.341-.67v-.671l-.67-.671-1.342.67-.671.672z"/><path d="M309.367 126.893l.67 1.342h2.013v-4.025l-2.683 2.683zm16.099-22.808h.671v.67l.671.672.671-2.684-.67-.67h0v.67zm4.025-50.513v-.604l-.67-.47-2.013-.872 1.342 1.073v.94l1.341-.067zm11.405-15.362l-2.013-.537-1.342.604.671.67h.671l1.342.403.67-1.14zm68.424 59.167l.671.67v.671l1.342.671-.671-2.012-.671-.671-.67.67zm-43.604-5.367h2.012l1.342-2.012h-1.341l-.671.67-.67.671-.672.671zm-.67-33.608l.67-1.946-1.341-1.342-2.013-.67-.67-.336-1.342.805v1.744l1.341.537.671.537v1.341l2.683-.67zm14.758 1.006l-2.013-3.556-2.012 1.476-1.342 2.214-.67.805-.672.402.671-.872.671-.738v-.335l-.67.335-1.342.537h0l-.671-.134 2.683-1.543.67-2.55-2.012-.737-2.683.268-.67.134v.336h-.672l-.67.268-1.342 1.208.67.805v.805l-.67.134-.67.067-.672.805-.67 1.006-.671.269v1.005l.67.202v-1.073l.671-.202h0v1.678l.671-.068.67.269-.67 1.274v1.342l.67.403v1.475l.672.738h.67l.671-.67v1.34h2.013l1.342 1.342 1.341 1.341 2.684.671 2.683-2.012-.671-1.342v-1.34l-.67-1.274v-.067l.67-.067.67-3.153.672-3.22zm14.758 18.515h-.67v.67l-.672.671h.671l.67-1.341zm.67 2.683h1.342l.671-.67-.67-.672h-1.342l-.671.671v.671h.67zM383.83 66.854v-1.61l-.671.268-.671.671-.67 1.677v1.342h0l.67.67h-.67 0l-.672.672h0v2.012h-.67v-.67l-.671 1.34-.671 1.343v2.012l-1.342 2.013-.67 2.012 1.341 1.342 2.013-1.342 1.341-1.342h2.683l4.025-1.341 2.013-.671.67-2.013v-2.012l-.67-1.342h-.67v.671h-.672v-1.342h0v-.67l-.67-.671-.671-.671V67.86l-1.342 1.342-1.342 2.012v.671h-.67v-.67l2.012-5.568-1.342-.738-.67-.067v1.207l-.671.805zm28.175 35.219v.67l-.671-1.341v-1.342l-.671-.67h-1.342l-1.341-2.013-1.342-2.013-.671.671h0l-.67-.67h-.672v.67h-3.355l-1.341.67-.671-.67h-.671l-.67.67-1.343 2.684h-2.012l1.342-3.354v-2.683h-4.025l.67-.671v-.67l-2.012.67-1.342-.67 1.342-.672 1.342-1.341.67-.671h.671l.671-.671-1.342-1.342-2.012-.67-.67-.671v-.671h-1.343l-1.341.67h-.671 0l-4.025 4.696-2.683 4.696.67.671v2.013l-4.024 1.341-.671-.67h-1.342v.67l1.342 2.013.67 1.341h-1.341l-.671-1.341-1.342.67h-.67v.671l-.671.671h0-.671 0v.671h-2.012l-.671.67h-1.342.67v-.67l-.67-.67-1.342.67-.67.67.67-1.34.671-.672-4.025-1.341-4.025.67-.67.671 1.341.671h1.342v.671l-1.342.67h-1.342l-2.683.672-2.013.67h-4.024l-1.342.671h0l-2.683 1.342-1.342 1.342h-4.025l.67.67 1.342.671-.67.671-1.342.671-.67 1.342v1.341l-1.343-1.341-2.012-.671v.67l2.012 2.013 1.342 1.342-.67.67h0l-.672-.67-.67-.671-.671.67h0-1.341l1.34 1.342 2.013 2.013h0l-.67.67h0v4.026h-.671l-1.342.67h-.67l.67-.67.67-.671.672-.67v-.672l-2.684-.67-2.012.67h-3.354l-4.025-.67-4.025-.671h-2.012l-1.342-.671v.67l-.671 1.342-.671.671.67.67v.672h0-.67v1.341l.67.671-.67 2.013-.671 1.341v.671h0v.671l-.67.67 2.012 2.013 2.012 1.342v4.025l2.013 1.342.67 2.683-1.341 2.012-1.342 2.013.671 1.342-.67 6.037-1.342.67-1.342.672 2.012 4.696.671 2.683h-.67v-.67l-1.342-.672-.671-.67v-2.684l-.671-1.342-.67-.67 2.683-6.709-.671-1.341-1.342-.671.67-.671v-.67h0v-.672l2.013-1.341 2.013-2.684-2.013-1.341-3.354-.671-.67-2.013-.671-2.012-2.013-2.683-2.012-2.013h-2.012l.67 1.342.67 1.341 1.342 1.342 1.342 1.342v2.012l-1.342 1.342-.67.67v-.67h-1.342v2.683l1.342 1.342 1.341 1.341v3.355l-.67 3.354h-1.342l-1.342-.671-1.342 1.342-2.683 2.012h-.67v.67h0l-1.342.672v2.012l.67 1.342.671 2.012h0l2.013 1.342 1.341 1.342v.67h.671l1.342-.67 1.342-1.342.67.67v.672l.671.67.671.671-.67 4.025-.672 4.025-1.341 3.354-2.684 1.342v1.341h0v1.342l.671 1.342v-.67h0v.67h0l-1.341 1.342v.67l.67 1.342.671 1.342.671 3.354-.67 2.683v4.696l.67 2.013 2.013.67v1.342h0v3.354l-.671 1.342h-.671l.67 2.012h1.342l.671 1.342 1.342.671 1.342-.67.67 2.012-.67 4.025-2.684 4.025h-1.341l-.671.67v1.342l.67.67 1.342.672-.67 1.341-.671.671v.671l-.671 1.342-2.013 2.683-3.354 2.683.67 4.696 2.684 1.342 1.342 1.341-4.696 2.684-5.367 1.341v8.721l3.355 1.342 2.012-.67 2.683.67 2.013.67 1.342.672v.67l.67.671h.671l1.342 1.342v2.012l.67 1.342 2.013.67 1.342 2.013-1.342.671-1.341 1.342-1.342 2.012v2.013l2.683 2.683 2.013 3.354-.671.671h-.671v1.342l-.67.67h-1.342l-1.342 2.684-.67 1.342v1.341l.67.671h-.67l-.672 1.342.671.67.67.671.672 6.038v.67l-2.013.672-2.012 2.012 2.012 2.012 2.013 2.013h2.012l1.342-.67 1.342 1.34 2.012.672.67 4.025 1.343 4.025-1.342 3.354.67.67h0v.671l.672.671.67.671v.67l-1.341 1.343-1.342.67v.671l-1.342 2.684h0-1.341l-.671.67-1.342 1.342-.67 2.013 1.341.67.67 1.342 4.026 1.342 4.696.67 4.695-2.683 3.355-4.696 1.341-.67 1.342-.671.67-2.013.672-1.341h2.012l.67-.671h.672v.67h1.341l.671-.67 2.013.67 3.354-1.341-1.342-2.013-1.341-2.012-1.342-.67-.671-.672v-1.341l2.013-1.342 2.012-.67h.67l.672-2.013v-3.355l.67-.67.671-.671v-3.354l2.684-2.684 2.012-1.341h.671l.67-.671-.67-.671v-3.354l-.67-1.342-1.343-.67 1.342-3.355 2.013-3.354 2.012.67h2.013l1.341.672h2.684l.67-2.684.671-.67h1.341v.67l1.343 4.696 2.683 1.342v-3.354h-.67l2.682-5.367 5.367-3.354v-.67l.67-1.343 2.013-1.341h1.342l.67.67v2.013l1.342.671h1.342l-.67.67v.672h1.341l.67.67.672.671h.67l1.342-2.012v-.671l1.342-1.342.67-2.012-1.341-2.013-1.342-1.341.671-.671.671-.671v-.67h2.012V262.4l-1.341-1.342-2.013-.67-1.341-5.367.67-3.354v-.671h0l1.342-.671.671-.67 3.354-2.684 2.683-3.354v-1.342l-.67-.67.67-1.343.671-.67-.67-2.013-.671-2.012.67-2.684 2.013-3.354-.67-.67h0l1.34-.671.672.67.67.671h0l.671-.67.671-.671 1.342-.671h.67v-2.684h-2.683l-2.683-.67-.67-.671-.672-.671h-1.341l-1.342-2.683 1.342-2.013v-2.012l1.341-2.013.671-.67.67-1.342-1.34-1.342-1.342-1.342-.671-1.341v-3.354l-.671-1.342v-4.696l-.67-.67-.672-.672 1.342-1.341 2.012-1.342.671-7.38v-9.391l-1.341-2.012-.671-2.683v-.671l.67-1.342h.671v-.67l1.342.67h1.342l1.341-1.342 2.013-.67 2.012.67h1.342l1.342-2.012v-2.683l1.341-.671.671-.671v-1.342l.671-2.012 2.683-2.013 2.684-2.012v-.671l-.671-2.013-1.342-2.683v-2.683l-.67-2.684-1.342-1.341-1.342-.671-.67-.67v-2.013l-.672-.671-.67-2.683.67-2.684-.67-.67v-2.013h-.671l-.671-.67 1.342-1.343.67-2.012.671-.67v-1.343l.671-.67-1.342.67-.67.671-1.342-.67-2.013 1.341v2.013h1.342l2.013-.671v.67l-.671.671h-.671l-1.342 2.013-1.341.67-.671-.67h0l-.671 1.342-1.342.67h0v2.012l-1.341-.67-.671-.67v.67h-4.696l-.67 2.013-2.013 2.012h-.671l.67-1.342 1.342-1.341v-1.342l.671-1.342 2.013-.67.67-2.013-.67-.67-1.342-.672h-.67 0l4.024.671 2.683-2.683h.671l.671-1.342.67-1.341 1.343-1.342 1.341-1.342.671-2.012 4.025-2.684v-.67l.67-.671 1.343-2.013 2.012-2.012.67-3.354-1.34-.671-.672-1.342v.671l-.67.67h0v-2.012h.67l1.342.671v1.342l.67-1.34v-3.355h-1.34v-2.012l-1.342-1.342v1.342zm-48.971-51.05l-.67.134-.672.402.671.268.67.202.672.603.67.671-.67.067-.671-.067v.47l.67.134.672.067.67.738.671.402 1.342-.47.67-.603 5.367-.67.671-.336v-3.623l1.342-.805.67-.805v-.737l-.67-.738v-.135l-.671-.335-1.342-3.153-.67-2.482-1.342-.067v.94l-3.354 1.877-2.684 2.147v1.14l.671.269v.604l-.67.67v.738l-.671.738-.671.336-.671.335v.537l.67.47v.2h-.67zm-1.342-11.27l-.67.872v.603h.67l1.342.604 1.342-1.677-2.684-.403zm5.367 60.978l-1.342-.67h0l.671 1.34 1.342.672v-1.342h-.671zM141.66 252.338l.67-2.012h-.67l-.672-.67v-.672h0l-.67-.67-.671-.671v-4.025l.67-1.342v-.67l-1.341-1.343v-1.341l.67-.671h0v-.67h-.67l-1.342-2.013-2.012 1.341-1.342 2.013-1.342.67-1.341.671-1.342 2.013-1.342 1.342h-1.341l-.671.67-2.683 1.342-2.013 2.013-5.367.67v.671l1.342 2.013v1.341h0l2.013 1.342h3.354v3.354l2.012.671 1.342 1.342.67 1.341v1.342l.672 2.683.67 2.684-.67.67v1.342l1.341-.67.671-1.342.67.67h.672v2.013l1.341 1.342.671 1.341h2.012l.672-.67.67-.671 2.684.67 2.683 1.342.67 1.342v.67h1.342l1.342-.67.671.67.67.671h1.342l.671 2.013-.67 1.342 3.354 4.695h2.012l1.342-1.341.67 1.341v.671l4.696 2.013 4.025-3.354-2.012-3.355-2.013-2.683h.671v-.67l-.67-1.342v-1.342h-.671l1.341-2.013 1.342-.67-2.013-2.013-2.012-.67-.67.67h-.672v-1.342l-.67-.67-.671 1.341h-1.342l-2.013 2.684-2.683-.671v-.671l-1.342-.67h-2.683l-.67-.672-.672-1.341h-.67l1.341-3.354-.67-.671-.671-.671 1.341-1.342 1.342-2.012-2.013-1.342-1.341 2.013h-.671l-.67-2.684-.672-2.012.671.67h.671v-1.341l-.67-.67v-2.013z"/><path d="M99.397 228.189l-.671-.671-1.342-.671-2.012-1.342v-.67l-.67-.671-.672-.671h-1.34l-.671-.671-.671-1.342-2.013-.67-1.341-2.013-2.684 1.342-3.89 1.341.134 2.013-.94 2.683.403 2.683 1.61 1.342h2.013v.67l.67.672h1.342v1.341h.67l.672.671.67 2.013-1.341 2.012-1.342.671h0l.671.67h.67v.672l.672.67h0l.67-.67h.671l.671.67v1.342l1.342.671h1.342l.67 2.012 1.342 2.684v.67l2.013 3.355v4.025l3.354-1.342.67-2.012.671-2.013h.671v.67l.671.672h3.354l.671-.671.67-1.342 5.367 1.342 1.342-.67 1.342-.672.67.671h.671v-1.342l-.67-2.683-.671-2.012-.671-.671h0v-2.684h-.67v-1.341l-1.343-.671-.67-.67v-1.342l-.671-2.013h0v-.67l-.671-.672-4.025-.67-2.012-2.684-.671-.67-1.342-.671h-1.342l-2.012.67v-1.341z"/><path d="M84.639 230.872v-.671h-2.013l-1.61-1.342-.402-2.683-1.476-.67-1.744-.672-.738-.67-.604-1.342h-.872l-1.006.67-1.61-.67h-1.677l-.068 1.342.202 1.341-1.409 1.342-1.476.67.134 2.684.671 3.354-1.811 1.342-1.878 2.012h.268l.402.671.336 1.342.134 2.012-2.415 1.342-2.214-.67-.872.67-.805.67h-.67l-.336.672.67 1.341 1.007 2.013-.537 2.683-.134 1.342h1.141v.67l-.336.671h1.074l.47.671.402.671 3.287-1.342 2.482 1.342.872-1.342.47-1.341 1.006.67v1.342h2.012l1.14-.67h.873l.536.67h.134l.135-.67.738.67h3.018l2.013.671.402 1.342.671 1.341 1.342-.67.67-.671h2.013v-1.342l.67-2.012 2.684-2.013 3.354-.67.671-.672.671-.67v-.671l-1.342-2.684-.67-2.012h-1.342l-1.342-.67v-1.343l-.67-.67h-.671 0l-.671.67h0l-.671-.67v-.671h-.67l-.672-.671h0l1.342-.67 1.342-2.013-.671-2.013-.671-.67h-.67v-1.342h-1.343 0l-.67-.671z"/><path d="M69.746 206.722v-.67l-1.61-.672-1.878-.67h0l.134.67-.402.671v.671h-1.007l-.872-.67-.738 1.34-.939 1.342-.134 1.342-1.073.671.872.67h.939l-.67 1.342h-.94v2.013l.134 1.342-.67.67h-.672l-1.006 2.013-.67 2.012h-.537l-.537.671.738 4.025 1.207.671.537.67 1.543 1.343 2.75.67 2.885-.67.47-.671h.536l1.476-.671 1.409-1.342-.201-1.341.067-1.342h1.677l1.61.67 1.006-.67h.872l.604 1.342.738.67 1.744.671 1.476.671.939-2.683-.134-2.013-.872-.67.134-.671h-1.007l-.67-1.342-.738-1.342-1.409-.67-1.207-.671.2-.671.336-1.342-.67-.67-.537-.672-1.812-2.012-1.677-1.342.202-.67-.604-1.342h-.805l-.604-.671h.067zm7.245-42.262l-2.549-.671-3.555-.67-2.617-3.355-2.817-3.354-.94-1.342h-1.408l-.872.67-1.476 1.343-2.012 2.012H57.47l-.067 1.342.134.67h.201l.067.671h-.603l-.671.671-.604 1.342-.268 2.012.268 1.342-.067.67-.67.672-.806.67.403.671.738.671.2 2.013-.67.67.134 1.342-.268.671h1.476l.67-.67h2.348l2.348-.672 1.14-.67h1.074l.47-.671.603-.671 1.41.67 1.005 2.013h1.14l.605-.67.603.67.671.671 5.165-1.342 2.55-2.683 1.14-2.683-.872-.671-1.006-1.342-.269-.67-.2-1.342z"/><path d="M90.676 151.043l-2.012-1.342-.671.671-.671.671-2.013.671-2.012.67h-.67l-.672-.67-.603-.67-3.69-.672-3.757-1.341-.939-.671-.872-1.342-1.073.671-.94.67h.068l.335.672-.604.67-.603.671v1.342l-.403 1.342-1.744 1.341-1.677 2.013 2.817 3.354 2.617 3.354 3.555.67 2.55.672.2 1.341.269.671 1.006 1.342.94.67 1.81-.67 1.41-.671h.67l.67-.67.672 1.34.67 1.343 2.013.67 2.012.671.671.671.671-.67.67-.672 1.343.671 1.341.671h.671l.67 1.342v1.341l2.013-2.683 2.013-.67-.67-1.342v-2.684l.67-1.341v-.671l.67-.671.672-.67h1.341v-.672l-.67-.67 1.341-.671h1.342l.67-4.025h0l-2.683-.671-2.012-.671h-1.342l-.67-.67-.672-.672-1.341-.67h-.671l-.67.67-1.343-.67-.67-.671h-.671 0l-1.342-2.013zm88.55 42.262l-1.342-1.341-1.342-1.342h-1.341l-1.342-.67-.67-.672.67-1.341-1.342-1.342h-1.341l-4.025-1.342-1.342 3.355.67 2.012-1.34.67 2.682 3.355 2.684 1.342-2.013 2.683-3.354 2.013v2.012l1.342 1.342-.671.67-.67 2.013-1.342.67-.671 1.342-2.013 6.038-2.683 6.037-.67.671-.672-.67v.67l-.67.671h-.671l-.671.67v3.355l.67-.67h.671l.671 2.012.671 1.341 2.013.671h2.012v.671l.67.67.672.672h.67l.671 2.012v.671h2.684l1.341-1.342.671-2.012h0v-.671h1.342l3.354-.67 1.342-2.013 1.341-1.342 1.342 1.342h2.012v-1.342l.671-2.012 3.354-.671 2.013-2.013h0v-2.683l1.342-2.013-1.342-3.354 2.012-2.012 1.342-.671 1.342-.67 3.354-3.355 3.354-3.354v-1.341l1.342-2.684 2.012-2.013-6.708-1.341-4.025-3.354h-2.013l-1.341.67h0-.671l-.67-.67-.672.67h-1.341v-.67h-2.684l-1.341.67zm81.841 16.1l-1.342-1.341h-3.354l-3.354-.671v-4.696l-1.342-.67-.67-2.013V198l.67-.67.671-1.342-1.342-1.342h-.67l-.671-.67v-.672h-1.342l-.67.671h-4.026l-1.341.671h0l-2.013-2.012-1.342-2.013 1.342-.67.67-.672-1.34-.67-.672-.671-2.012-1.342-2.013-.67h-.67l-.671.67-.671-.67v-.672h-1.342l-1.341.671-.671-.67h-2.013l-.67-1.342.67-1.342-2.012-.67-.671-1.342.67-1.342h1.343l.67-2.013 1.342-2.012v-.67l-.67-.672v-2.012l-.672-2.013-1.341.671-2.013.671v1.342h-1.341l-1.342.67-1.342.671-.67-1.341v-.671h0-1.342l-1.342.67h-.67l-.672.672h0l-1.341.67-.671.671-.67 4.025-2.684 2.683-2.684 2.684-1.341 2.683-1.342 3.354v.671h.671l-.67 1.342h-1.343l-.67 2.012-.671 1.342v.67l.67.672v2.012l2.013 1.342 2.013 1.341 2.012 4.696.67 1.342 1.343 2.012-1.342 2.684-.67 2.683-.672 1.342v2.012h0l1.342.67v1.343l-.67 2.683-.672 2.683 2.013 1.342 2.012 1.342v7.379l.671.67 2.013.671h2.012l.67-1.341 1.343-.671h.67v.67h4.025l1.342.672h.67l.672-.671.67-.671 2.684-.671 1.341-2.012.671-.671h1.342l.67 1.341v.671h2.684l2.013.671.67.67.671.672h.671l1.342 2.012.67 2.683h.671l.671.671-.67.671v.671l1.341 1.342h.67v2.012l-.67 1.342 2.013 1.341 2.012.671.67.671.672.67h2.012l1.342 1.343 2.683-2.684 2.684-2.683h4.024l2.013-3.354.67-2.684.672-.67h.67l.671-1.342-.67-1.342v-.67h.67l.671.67 2.683.671 2.684.671.67.67.671.672 1.342-.671h1.342v1.341l1.341 1.342h2.684l2.683-.67v1.341l.67 1.342h2.684l.671.67 1.342.671.67-.67h.671l2.013-1.342 1.341-.671 2.013 1.342 1.342.67 6.037-1.341 4.025-2.684-.67-1.341L304 237.58l-.67-4.696-1.343-2.683-1.341-1.342h-2.684l-1.341-2.012-1.342-2.013h-2.683l-2.013-2.012v-.67l-.67-1.343h0l-3.355 1.342-3.354 1.342-1.341-.671-1.342-.67h-4.696l-1.342-1.343-.67-2.683-3.355-2.012-2.683-2.013-3.354-.67-1.342-.672-1.341-1.341-1.342-2.013z"/><path d="M288.57 244.288l-1.34-.67h-2.013l-.671-1.342-.671-1.342-2.683.671h-2.684l-1.341-1.342v-1.341h-1.341l-1.343.67-.67-.67-.671-.671-2.684-.67-2.683-.672-.67-.67h0v2.012l-.672 1.342h-.67l-.671.67-.671 2.684-2.013 3.354h-4.024l-2.684 2.683-2.683 2.684v2.012h-.671v2.012h-.67v.671l.67.671v2.684l.67 1.341v1.341l-.67.672.67 1.341.672.671 1.341 1.342 1.342.67 8.05 2.684-.67.67 4.695 2.684 3.354 5.367 4.696.67.67 2.684h4.026l.67.67v-.67l.671-.67h2.012l.672 1.34-.671.672v2.683l-.671.67-.67.672h.67v.67l.67.671h0l1.343-.67.67-2.013.671.67h4.696l1.342-.67.67.67h.671l.671-.67 1.342-1.342h.67l.671.671.671-.67h4.696l.67-.672 1.343.671 1.341.671 2.013-1.342h2.683l.67-2.012 1.343-2.683h1.341l.671-.671v-1.342h.67v-.67l-1.34-3.355-2.684-2.683v-2.013l.67-2.012 2.013-1.342 1.342-.67-1.342-2.013-2.012-.671-.671-1.342v-2.012l-1.342-1.342h-.67l-.671-.67v-.671l-1.342-.671-2.683-.671-2.013-.67-2.683.67-2.684-1.342v-8.721l-2.012-.67-2.013-1.342-1.341.67-2.013 1.342h-.67l-.671.671-1.342-.67zm117.396-19.454h-2.012v2.684h-.671l-1.342.67-.67.671-.672.671h0l-.67-.67h-2.013v.67h0l-1.342 3.354-.67 3.355.67 1.341.671 2.013-.67.67-.671 1.342.67.671v1.342l-2.683 3.354-3.354 3.354h-1.342l-.67.67v.672h0l-.671 3.354 1.341 5.366 2.013.671 1.341 1.342v2.683h-2.012v.671l-.67.67-.672.672 1.342 1.341 1.342 2.013-.671 2.012-1.342 1.342v.67l-1.342 2.013h-.67l-.671-.67-.671-.671h-1.342v-1.342h-.67l-1.342-.67v-2.013l-.671-.671-2.012.67-1.342.671-.671 1.342v.671l-5.367 3.354-2.683 5.367h0l.67.67-.67.671.67.671v1.342l-2.682-1.342-1.342-4.025v-1.341h-1.342l-.67.67-.671 2.684h-2.684l-1.341-.671h-2.013l-2.012-.67-2.013 3.353-1.342 3.354.671.671 1.342 1.342v3.354l.67.67-.67.672h-.67l-2.013 1.341-2.684 2.684-.67 2.012.67 1.342-.67.67-.671.671v1.342l-.671 2.013v2.012h-.671l-2.012.67-2.013 1.343v1.341l.67.671 1.343.67 1.341 2.013 1.342 2.013h1.342l3.354 2.683 3.354 2.684h2.683l.671.67v1.342l.67.67 2.684-2.012 2.683-2.683.671 1.342.671 2.012 2.683 2.013 3.355 2.012.67 2.013.671 1.341h.671l.67-.67 4.697 4.024v1.342l.67 1.342.671.67 1.342 1.342v1.342l-.67 1.342h1.34l.672-.671h2.683l2.012-2.013v-.67l-4.695-1.342 2.012-.671 3.354-1.342-.67-.67-1.342-.671v-.671l-.671-.671v-.67l2.012 2.012 2.684 1.341 8.05-8.72 10.062-14.759-.67-5.366.67-5.367.671-1.342h1.342l-.671-1.341-1.342-.671v-.671l-.67-.67h-.671l-.671-3.355 1.341-1.342 2.013-1.341.67.67h.672l.67-1.341 1.342-1.342.67.671v.67h.672l.67.672h3.355l2.012-1.342.671-1.342.67.671.672.671h3.354l1.341-.67v1.34l1.342 1.343h1.342l1.341-.671 2.684.67 3.354-1.341 3.354-4.025 2.683.67v.672h-.67l.67.67h2.012l1.342.671.671-.67 1.342-1.342.67.67h.672v-4.024h-1.342l-.67-4.696v-.671h.67v-2.013h.67l.672-.67-1.342-1.342 1.342-1.342 2.012.671 1.342.671 2.683-.67-.67-1.343v-.67l-.672-.671-.67-1.342v-2.012l-.671-1.342v-1.342l-.671-1.341h-6.708v-1.342l-.671-.67v-1.342l-1.342-.671-1.341-1.342-2.013-.67h-2.683l-2.013 1.34-1.341.672-1.342.67-.67 2.013-.672 1.342h-1.341l-2.684 4.025-3.354 3.354.67-2.013-1.34-.67-.672-1.342v-.671l-1.341 1.342-1.342.67h-2.012 0-1.342v.671h-.67l-2.013-.67-.671 1.341-3.354.671h-1.342l-.67-2.683v-3.354l.67-.671.67-.671v-2.012l1.343-4.026 1.341-3.354-2.012-2.012-.671-3.354 1.342-1.342.67-1.342-1.341-2.012-1.342-1.342v-3.354l-.67-4.696-2.013-2.012-2.684-.671 2.013-2.013.67-.67-.67-2.013-.671-1.342z"/></g></svg>