<svg width="28" height="28" xmlns="http://www.w3.org/2000/svg" viewBox="0 0 181.352 181.352"><path d="M169.393 167.37l-14.919 9.848c-9.604 6.614-50.531 14.049-106.211-53.404C-5.415 58.873 9.934 22.86 17.134 14.555L29.523 1.678c2.921-2.491 7.328-2.198 9.839.811l32.583 38.543.02.02c2.384 2.824 2.306 7.22-.83 9.868v.029l-14.44 10.415c-5.716 5.667-.733 14.587 5.11 23.204l27.786 32.808c12.926 12.477 20.009 18.241 26.194 14.118l12.008-13.395c2.941-2.472 7.328-2.169 9.839.821l32.603 38.543v.02c2.372 2.833 2.284 7.22-.842 9.887z" fill="#fff"/></svg>