<svg version="1.0" xmlns="http://www.w3.org/2000/svg" height="26" viewBox="0 0 997 1280"><path d="M306 2.3c-3.6 1.3-26.1 13.6-50 27.4-23.9 13.8-52.3 30.1-63.2 36.2-21.2 12-27 16.7-31.3 25.5-3.1 6.3-4.1 15.5-2.5 21.6 1.7 6.4 54.1 95.7 131.7 224.5 45.4 75.4 42.4 70.6 47.5 75.6 5.6 5.5 11.1 8.5 18.8 10.5 11.2 2.9 11.6 2.7 64.9-28 26.2-15 55-31.5 64.1-36.7 18.1-10.2 23.3-14.4 27.3-21.7 5.3-9.7 6.8-20.4 4.4-29.7-.9-3.5-28.1-49.3-88.1-148.5-47.7-78.9-87.9-145-89.2-146.7-3.1-4.1-9.6-7.9-17.6-10.4-7.9-2.4-8.9-2.3-16.8.4zM119.3 137C62.6 153.3 25.9 195.6 9.5 264c-4.2 17.4-7.7 46.1-9.2 75-.8 15.9 3.2 65 7.8 96 29.4 197.4 146.2 445.5 291.8 619.5 37.5 44.8 80.9 88.4 119.6 120.1 59.2 48.6 119 81.2 175 95.4 19.6 5 53.8 10 68.6 10 7.2 0 10.8-.4 34.4-3.6 21.1-2.9 42.6-9.1 63.2-18.1 8.4-3.7 10.4-4.9 10-6.4-.7-2.7-82-144.9-91.2-159.4-9.5-15.1-41.9-68-65.5-107-9-14.9-16.7-27.4-17.1-27.9-.4-.5-4.4 0-9.1 1.2-34.8 8.8-71.6 3.4-111.3-16.3-51.3-25.3-100.1-71-143.7-134.5-15.2-22.1-29.6-47.1-36.4-63-18.7-44.1-31.5-90.4-37-134.5-1.9-15.5-2.2-50.8-.5-64 4.9-38.6 17.3-69.7 38-95.5l6-7.5-1.8-3c-22.5-37.4-39.7-68.3-92.1-165.5-47.2-87.5-76.6-140.1-78.6-140.6-.5-.2-5.5 1-11.1 2.6zM769 812.4c-1.9.8-9.1 4.6-16 8.6s-35.1 20.3-62.8 36.1c-27.6 15.9-51.8 30-53.6 31.4-5.3 4.1-10.4 12.2-12.2 19.7-2.8 11.4-2.1 13.2 20.2 52.6 69.4 122.5 151.5 263.6 156.2 268.5 1.5 1.5 5.6 4.2 9.2 6 5.9 2.9 7.3 3.2 16 3.2h9.5l12.5-7.2c79.9-45.7 117.1-67.2 119.9-69.2 4.1-2.9 9.2-10.9 11.5-17.7 2-6.2 2.3-18.7.6-24-.7-2.1-10.8-20-22.5-39.9-11.7-19.8-38.7-65.9-60-102.5-98.2-168.5-93.1-160.4-104.9-164.9-6.5-2.4-17.9-2.8-23.6-.7z" fill="#fff"/></svg>