<svg xmlns="http://www.w3.org/2000/svg" viewBox="0 0 24 24">
  <circle cx="12" cy="12" r="12" fill="#1d1d1f"/>
  <g transform="translate(2.4 2.4) scale(0.8)" fill="#f5f5f7">
    <rect x="8.2" y="2.2" width="1.15" height="1.7" rx="0.35"/>
    <rect x="10.2" y="2.2" width="1.15" height="1.7" rx="0.35"/>
    <rect x="12.2" y="2.2" width="1.15" height="1.7" rx="0.35"/>
    <rect x="14.2" y="2.2" width="1.15" height="1.7" rx="0.35"/>
    <path d="M8 4.1 L16 4.1 C16.4 4.1 16.7 4.45 16.62 4.85 L16.3 6.3 L7.7 6.3 L7.38 4.85 C7.3 4.45 7.6 4.1 8 4.1 Z"/>
    <path fill-rule="evenodd" d="M7.9 7.3 L16.1 7.3 L15.5 19.6 C15.44 20.6 14.6 21.4 13.6 21.4 L10.4 21.4 C9.4 21.4 8.56 20.6 8.5 19.6 Z M11.2 9.6 C10.85 9.6 10.56 9.9 10.56 10.25 L10.56 13.15 C10.56 13.5 10.85 13.8 11.2 13.8 L12.8 13.8 C13.15 13.8 13.44 13.5 13.44 13.15 L13.44 10.25 C13.44 9.9 13.15 9.6 12.8 9.6 Z M10.5 16.2 C10.22 16.2 10 16.42 10 16.7 C10 16.98 10.22 17.2 10.5 17.2 L13.5 17.2 C13.78 17.2 14 16.98 14 16.7 C14 16.42 13.78 16.2 13.5 16.2 Z M10.6 18.3 C10.32 18.3 10.1 18.52 10.1 18.8 C10.1 19.08 10.32 19.3 10.6 19.3 L13.4 19.3 C13.68 19.3 13.9 19.08 13.9 18.8 C13.9 18.52 13.68 18.3 13.4 18.3 Z"/>
  </g>
</svg>
