<svg xmlns="http://www.w3.org/2000/svg" style="display:none">
  <symbol id="i-pin" viewBox="0 0 16 16">
    <path fill="currentColor" stroke="none" d="M8 16s6-5.686 6-10A6 6 0 0 0 2 6c0 4.314 6 10 6 10m0-7a3 3 0 1 1 0-6 3 3 0 0 1 0 6"></path>
  </symbol>
  <symbol id="i-arrow" viewBox="0 0 20 20">
    <path d="M4 10h12"></path>
    <path d="M11 5l5 5-5 5"></path>
  </symbol>
  <symbol id="i-phone" viewBox="0 0 16 16">
    <path fill="currentColor" stroke="none" fill-rule="evenodd" d="M1.885.511a1.745 1.745 0 0 1 2.61.163L6.29 2.98c.329.423.445.974.315 1.494l-.547 2.19a.68.68 0 0 0 .178.643l2.457 2.457a.68.68 0 0 0 .644.178l2.189-.547a1.75 1.75 0 0 1 1.494.315l2.306 1.794c.829.645.905 1.87.163 2.611l-1.034 1.034c-.74.74-1.846 1.065-2.877.702a18.6 18.6 0 0 1-7.01-4.42 18.6 18.6 0 0 1-4.42-7.009c-.362-1.03-.037-2.137.703-2.877z"></path>
  </symbol>
  <symbol id="i-heart" viewBox="0 0 16 16">
    <path fill="currentColor" stroke="none" fill-rule="evenodd" d="M8 1.314C12.438-3.248 23.534 4.735 8 15-7.534 4.736 3.562-3.248 8 1.314"></path>
  </symbol>
  <symbol id="i-chevron" viewBox="0 0 20 20">
    <path d="M5 7l5 6 5-6"></path>
  </symbol>
  <symbol id="i-prev" viewBox="0 0 16 8">
    <path d="M1 1.5L8 6.5L15 1.5" stroke="currentColor" stroke-width="2" fill="none"></path>
  </symbol>
  <symbol id="i-clipper" viewBox="0 0 24 24">
    <g fill="currentColor" stroke="none">
      <rect x="8.2" y="2.2" width="1.15" height="1.7" rx="0.35"></rect>
      <rect x="10.2" y="2.2" width="1.15" height="1.7" rx="0.35"></rect>
      <rect x="12.2" y="2.2" width="1.15" height="1.7" rx="0.35"></rect>
      <rect x="14.2" y="2.2" width="1.15" height="1.7" rx="0.35"></rect>
      <path d="M8 4.1 L16 4.1 C16.4 4.1 16.7 4.45 16.62 4.85 L16.3 6.3 L7.7 6.3 L7.38 4.85 C7.3 4.45 7.6 4.1 8 4.1 Z"></path>
      <path fill-rule="evenodd" d="M7.9 7.3 L16.1 7.3 L15.5 19.6 C15.44 20.6 14.6 21.4 13.6 21.4 L10.4 21.4 C9.4 21.4 8.56 20.6 8.5 19.6 Z M11.2 9.6 C10.85 9.6 10.56 9.9 10.56 10.25 L10.56 13.15 C10.56 13.5 10.85 13.8 11.2 13.8 L12.8 13.8 C13.15 13.8 13.44 13.5 13.44 13.15 L13.44 10.25 C13.44 9.9 13.15 9.6 12.8 9.6 Z M10.5 16.2 C10.22 16.2 10 16.42 10 16.7 C10 16.98 10.22 17.2 10.5 17.2 L13.5 17.2 C13.78 17.2 14 16.98 14 16.7 C14 16.42 13.78 16.2 13.5 16.2 Z M10.6 18.3 C10.32 18.3 10.1 18.52 10.1 18.8 C10.1 19.08 10.32 19.3 10.6 19.3 L13.4 19.3 C13.68 19.3 13.9 19.08 13.9 18.8 C13.9 18.52 13.68 18.3 13.4 18.3 Z"></path>
    </g>
  </symbol>
  <symbol id="i-star" viewBox="0 0 24 24">
    <path d="M12 2l2.9 6.2 6.6.8-4.9 4.6 1.3 6.6L12 17l-5.9 3.2 1.3-6.6L2.5 9l6.6-.8L12 2z" fill="currentColor" stroke="none"></path>
  </symbol>
  <symbol id="i-telegram" viewBox="0 0 16 16">
    <path fill="currentColor" stroke="none" d="M16 8A8 8 0 1 1 0 8a8 8 0 0 1 16 0M8.287 5.906q-1.168.486-4.666 2.01-.567.225-.595.442c-.03.243.275.339.69.47l.175.055c.408.133.958.288 1.243.294q.39.01.868-.32 3.269-2.206 3.374-2.23c.05-.012.12-.026.166.016s.042.12.037.141c-.03.129-1.227 1.241-1.846 1.817-.193.18-.33.307-.358.336a8 8 0 0 1-.188.186c-.38.366-.664.64.015 1.088.327.216.589.393.85.571.284.194.568.387.936.629q.14.092.27.187c.331.236.63.448.997.414.214-.02.435-.22.547-.82.265-1.417.786-4.486.906-5.751a1.4 1.4 0 0 0-.013-.315.34.34 0 0 0-.114-.217.53.53 0 0 0-.31-.093c-.3.005-.763.166-2.984 1.09"></path>
  </symbol>
  <symbol id="i-instagram" viewBox="0 0 16 16">
    <path fill="currentColor" stroke="none" d="M8 0C5.829 0 5.556.01 4.703.048 3.85.088 3.269.222 2.76.42a3.9 3.9 0 0 0-1.417.923A3.9 3.9 0 0 0 .42 2.76C.222 3.268.087 3.85.048 4.7.01 5.555 0 5.827 0 8.001c0 2.172.01 2.444.048 3.297.04.852.174 1.433.372 1.942.205.526.478.972.923 1.417.444.445.89.719 1.416.923.51.198 1.09.333 1.942.372C5.555 15.99 5.827 16 8 16s2.444-.01 3.298-.048c.851-.04 1.434-.174 1.943-.372a3.9 3.9 0 0 0 1.416-.923c.445-.445.718-.891.923-1.417.197-.509.332-1.09.372-1.942C15.99 10.445 16 10.173 16 8s-.01-2.445-.048-3.299c-.04-.851-.175-1.433-.372-1.941a3.9 3.9 0 0 0-.923-1.417A3.9 3.9 0 0 0 13.24.42c-.51-.198-1.092-.333-1.943-.372C10.443.01 10.172 0 7.998 0zm-.717 1.442h.718c2.136 0 2.389.007 3.232.046.78.035 1.204.166 1.486.275.373.145.64.319.92.599s.453.546.598.92c.11.281.24.705.275 1.485.039.843.047 1.096.047 3.231s-.008 2.389-.047 3.232c-.035.78-.166 1.203-.275 1.485a2.5 2.5 0 0 1-.599.919c-.28.28-.546.453-.92.598-.28.11-.704.24-1.485.276-.843.038-1.096.047-3.232.047s-2.39-.009-3.233-.047c-.78-.036-1.203-.166-1.485-.276a2.5 2.5 0 0 1-.92-.598 2.5 2.5 0 0 1-.6-.92c-.109-.281-.24-.705-.275-1.485-.038-.843-.046-1.096-.046-3.233s.008-2.388.046-3.231c.036-.78.166-1.204.276-1.486.145-.373.319-.64.599-.92s.546-.453.92-.598c.282-.11.705-.24 1.485-.276.738-.034 1.024-.044 2.515-.045z"></path>
    <path fill="currentColor" stroke="none" d="M12.27 2.77a.96.96 0 1 0 0 1.92.96.96 0 0 0 0-1.92m-4.27 1.122a4.109 4.109 0 1 0 0 8.217 4.109 4.109 0 0 0 0-8.217m0 1.441a2.667 2.667 0 1 1 0 5.334 2.667 2.667 0 0 1 0-5.334"></path>
  </symbol>
  <symbol id="i-google" viewBox="0 0 24 24">
    <path fill="currentColor" stroke="none" d="M12.48 10.92v3.28h7.84c-.24 1.84-.853 3.187-1.787 4.133-1.147 1.147-2.933 2.4-6.053 2.4-4.827 0-8.6-3.893-8.6-8.72s3.773-8.72 8.6-8.72c2.6 0 4.507 1.027 5.907 2.347l2.307-2.307C18.747 1.44 16.133 0 12.48 0 5.867 0 .307 5.387.307 12s5.56 12 12.173 12c3.573 0 6.267-1.173 8.373-3.36 2.16-2.16 2.84-5.213 2.84-7.667 0-.76-.053-1.467-.173-2.053H12.48z"></path>
  </symbol>
  <symbol id="i-booksy" viewBox="0 0 24 24">
    <g fill="none" stroke="currentColor" stroke-width="2.4" stroke-linecap="round">
      <path d="M14.2 4.9 C12.6 5.1 11.8 6 11.8 7.5 L11.8 13.2"></path>
      <path d="M11.9 14.9 C10.6 16.5 9.1 16.7 7.8 15.5 C6.7 14.5 5.5 14.6 4.5 15.6"></path>
      <circle cx="15.3" cy="14.7" r="3.5"></circle>
    </g>
  </symbol>
</svg>
