<svg xmlns="http://www.w3.org/2000/svg" viewBox="0 0 512 512"><path fill="currentColor" d="M326.696 2.772c-.305 1.525-4.66 12.833-9.678 25.129-5.018 12.297-8.987 23.28-8.821 24.407.244 1.653 4.254 3.663 20.694 10.371C340.107 67.256 350.289 71 351.519 71c3.866 0 6.665-5.673 4.077-8.262-.81-.809-7.463-3.849-14.784-6.755-7.322-2.906-13.734-5.66-14.249-6.12-1.298-1.159 2.175-11.825 4.09-12.56.833-.32 7.318 1.72 14.412 4.534 7.093 2.813 13.539 4.869 14.324 4.567.785-.301 1.978-1.877 2.651-3.501 1.797-4.338-.25-6.006-14.151-11.529C337.605 27.287 336 26.345 336 24.39c0-3.291 1.745-7.355 3.437-8.004.807-.31 7.86 2.027 15.672 5.193l14.205 5.757 2.343-2.724c4.714-5.479 3.493-6.524-17.657-15.099-9.075-3.68-17.497-7.325-18.715-8.102C334.067.635 331.761 0 330.16 0c-2.38 0-3.011.505-3.464 2.772M173 19.498c-9.384 3.456-14.554 10.007-13.207 16.735.235 1.176 1.048 1.602 2.527 1.324 1.199-.224 2.94-.442 3.869-.483.929-.041 3.766-1.872 6.305-4.069 2.538-2.197 5.722-4.272 7.074-4.611 2.538-.637 5.452.968 5.406 2.978-.024 1.074-5.066 4.721-13.208 9.554-5.668 3.366-7.766 6.603-7.766 11.986 0 5.532 2 8.772 6.599 10.694 6.418 2.681 13.443 1.427 21.081-3.765 2.681-1.822 5.472-2.841 7.782-2.841 3.826 0 10.541-2.358 10.534-3.699-.002-.441-.895-2.263-1.985-4.051-1.09-1.787-3.169-6.962-4.62-11.5-3.872-12.105-6.986-18.244-9.934-19.588-4.148-1.89-13.325-1.29-20.457 1.336m-49.97 24.595c-4.061 2.942-4.246 3.297-3.798 7.277.26 2.301 1.719 8.579 3.243 13.951 1.524 5.372 2.546 9.991 2.271 10.266-.274.275-3.717-1.922-7.651-4.881-9.794-7.368-15.217-9.99-18.264-8.832C96.133 62.9 90 68.335 90 69.7c0 .87 34.575 21.274 38.407 22.665 2.497.907 9.358-3.582 10.121-6.622.46-1.833-6.097-36.579-8.113-42.993-.785-2.497-2.518-2.182-7.385 1.343m66.796 1.338c.46 3.913-3.178 7.569-7.532 7.569-6.117 0-5.218-5.409 1.487-8.945 4.578-2.414 5.628-2.175 6.045 1.376m213.563 1.819c-2.695 2.888-7.598 8.395-10.895 12.24a1955.912 1955.912 0 01-13.244 15.231c-3.988 4.532-7.25 9.117-7.25 10.187 0 2.176 6.594 8.092 9.02 8.092.86 0 3.568-2.042 6.017-4.537 2.874-2.929 5.164-4.436 6.458-4.25 2.215.317 2.241.693.973 13.863l-.73 7.575 4.484 3.675c2.466 2.021 4.946 3.674 5.51 3.674 1.687 0 3.03-4.852 4.705-17 1.138-8.249 2.061-11.853 3.266-12.75 1.076-.801 5.203-1.25 11.488-1.25 5.886 0 9.809-.401 9.809-1.002 0-.551-2.75-3.026-6.11-5.5-6.62-4.873-8.916-5.274-20.665-3.601-2.901.413-5.151.423-5 .022.151-.4 3.875-4.66 8.275-9.466 11.643-12.717 11.202-11.67 6.914-16.416-4.908-5.433-7.002-5.238-13.025 1.213M64.117 99.264c-4.888 2.494-10.289 8.51-12.596 14.031-1.753 4.197-2.016 15.262-.46 19.39 2.712 7.192 11.935 13.255 20.221 13.293 20.796.096 33.033-29.267 18.083-43.391-6.37-6.017-17.179-7.44-25.248-3.323m379.11 10.776c-2.208.886-2.229 1.022-.736 4.686.845 2.076 2.494 4.449 3.664 5.274 5.232 3.688 8.845 7.913 8.845 10.341 0 4.64-2.068 3.931-9.474-3.251-8.786-8.518-12.955-10.59-18.378-9.13-5.223 1.407-8.272 4.963-8.881 10.359-.737 6.542 1.207 11.043 7.315 16.939 3.663 3.535 5.418 6.024 5.418 7.682 0 2.784 4.664 10.06 6.449 10.06.647 0 2.499-1.39 4.114-3.088 1.615-1.699 7.085-5.571 12.154-8.604 5.07-3.034 10.357-6.655 11.75-8.048 5.395-5.394 2.455-18.625-6.168-27.767-5.277-5.595-10.938-7.515-16.072-5.453m-362.469 5.455c3.991 3.991 4.422 4.853 3.853 7.701-1.328 6.639-8.369 10.39-14.632 7.795-4.074-1.687-8.979-7.492-8.979-10.626 0-1.584 1.301-3.866 3.4-5.965 2.795-2.795 4.153-3.4 7.632-3.4 3.681 0 4.816.585 8.726 4.495m358.874 19.076c3.693 3.916 4.21 5.892 1.786 6.822-3.01 1.155-5.157.596-7.782-2.029-2.85-2.851-3.334-5.266-1.436-7.164 1.989-1.989 3.892-1.382 7.432 2.371M29.256 163.645c-4.886 2.408-7.355 7.259-8.386 16.471-.575 5.143-1.585 8.96-2.829 10.691-2.633 3.668-3.599 9.485-1.819 10.962C18.002 203.247 49.597 213 52.603 213c1.906 0 2.59-.936 4.036-5.524 2.239-7.103 1.993-7.346-12.106-11.952-6.032-1.97-11.994-4.548-13.25-5.728-2.813-2.643-3.044-7.797-.454-10.141 2.698-2.442 6.572-2.057 19.707 1.961 11.354 3.474 11.874 3.543 13.171 1.769 2.318-3.169 3.784-9.382 2.642-11.193-1.161-1.84-26.246-10.065-30.849-10.114-1.65-.018-4.46.687-6.244 1.567m447.994 1.846c-1.788.777-3.25 2.077-3.25 2.889 0 2.74-3.064 4.57-12.696 7.58-5.276 1.649-10.612 3.667-11.859 4.484-3.374 2.211-4.733 7.31-3.46 12.987 1.971 8.798 4.763 11.008 10.566 8.364 2.279-1.038 2.57-1.659 2.111-4.493-.723-4.455.626-5.537 10.375-8.313l8.226-2.342 2.69 3.295c2.359 2.891 3.08 3.21 5.876 2.595 3.031-.665 5.766-3.609 4.516-4.859-.322-.322-.313-1.67.02-2.997.456-1.818 1.715-2.723 5.101-3.672 6.513-1.823 7.262-3.188 4.057-7.39-3.711-4.866-7.193-6.935-10.541-6.265-1.924.384-3.474-.046-5.034-1.399-2.643-2.292-2.513-2.283-6.698-.464m-9.565 52.526c-8.709 2.614-13.628 10.385-13.663 21.584-.033 10.813 2.765 17.063 9.239 20.632 4.02 2.216 4.703 1.227 4.724-6.828.012-4.838-.398-6.468-1.985-7.905-1.1-.995-2-3.03-2-4.52 0-3.264 3.472-7.98 5.875-7.98 1.439 0 1.933 1.639 2.937 9.75.664 5.363 1.203 11.654 1.198 13.981-.009 3.762.288 4.306 2.681 4.906 3.474.872 10.583-1.044 14.464-3.898C496.133 254.078 498 249.241 498 240c0-9.172-1.842-14.007-6.987-18.336-5.086-4.279-15.696-5.938-23.328-3.647m19.694 18.528c1.204 3.138.597 6.4-1.568 8.416-1.203 1.121-2.72 2.039-3.37 2.039-1.347 0-2.86-10.746-1.875-13.312.561-1.463.928-1.484 3.41-.2 1.53.791 3.061 2.166 3.403 3.057m-463.82-.797c-6.017.178-11.529.813-12.25 1.41-1.801 1.496-1.697 10.311.144 12.153 1.16 1.159 3.637 1.351 12.25.947 8.451-.397 11.613-.164 14.553 1.069 6.042 2.535 7.531 10.111 2.514 12.796-1.214.65-7.621 1.362-14.238 1.583-17.254.576-16.532.282-16.532 6.742 0 8.398.474 8.615 17.3 7.941 7.81-.313 15.648-1.009 17.417-1.546 7.131-2.165 10.842-11.455 8.285-20.738-.698-2.533-1.171-8.381-1.053-12.995.157-6.09-.149-8.622-1.117-9.235-1.287-.816-3.597-.827-27.273-.127m430.124 48.712c-1.786 1.786-3.035 7.043-2.52 10.601.29 1.997 1.391 2.576 7.837 4.119 12.809 3.066 17.629 4.753 19.505 6.826 1.584 1.75 1.661 2.497.614 5.991-.861 2.875-.897 4.549-.128 5.987 1.333 2.489 6.237 5.111 7.779 4.158 1.777-1.098 4.231-7.703 4.222-11.36-.005-1.805.769-6.317 1.72-10.026 1.52-5.933 1.551-6.919.258-8.195-.808-.798-8.445-3.011-16.97-4.918-8.525-1.907-16.673-3.765-18.106-4.128-1.766-.447-3.124-.142-4.211.945M43.02 305.227c-4.38 2.317-4.946 4.941-4.303 19.963.633 14.799.145 16.234-3.685 10.855-1.681-2.361-2.06-4.221-1.885-9.25.151-4.372-.331-7.441-1.578-10.045-2.015-4.204-3.659-4.66-6.513-1.806-4.332 4.332-3.891 15.886.984 25.79 5.557 11.288 16.171 14.558 22.569 6.954 2.609-3.101 2.637-3.301 2.174-15.32-.259-6.725-.048-12.93.471-13.857.854-1.526 1.156-1.474 3.327.565 3.044 2.859 4.027 8.053 2.436 12.872-1.084 3.286-.989 4.327.758 8.276 2.458 5.558 3.8 6.47 6.252 4.251 7.518-6.803 5.667-25.074-3.575-35.299-3.7-4.092-4.519-4.512-9.5-4.869-3.308-.238-6.427.124-7.932.92m395.555 25.018c-.845 1.289-2.053 3.828-2.685 5.642-.993 2.846-.893 3.547.73 5.121 1.681 1.63 27.56 13.685 33.074 15.406 2.441.762 4.371-1.434 6.416-7.301 1.604-4.601.261-5.655-17.11-13.424-18.756-8.388-18.535-8.329-20.425-5.444m42.389 22.338c-2.555 5.962-2.486 6.861.719 9.382 3.589 2.823 5.327 2.287 8.023-2.473 3.301-5.828 3.012-8.294-1.174-10.043-5.004-2.091-5.398-1.927-7.568 3.134M78.253 355.25c-.546.688-2.642 5.691-4.658 11.118-6.481 17.446-5.382 16.596-18.257 14.132-10.545-2.018-10.677-2.007-9.218.75 2.499 4.721 8.117 10.637 11.086 11.672 1.701.593 5.838 1.085 9.193 1.093 9.017.023 9.723 1.066 3.42 5.05-6.551 4.141-16.063 11.073-17.054 12.429-1.45 1.985-.714 4.495 2.339 7.971 1.707 1.944 3.881 3.535 4.833 3.535 1.596 0 44.184-31.768 45.549-33.978 1.345-2.176-4.625-10.022-7.626-10.022-.985 0-3.919 1.35-6.521 3-9.073 5.754-10.599 3.939-6.29-7.478 3.588-9.505 3.473-11.266-1.088-16.772-3.36-4.056-4.186-4.418-5.708-2.5m341.851 9.285c-3.054 3.477-3.787 5.98-2.339 7.979.404.557 3.21 3 6.235 5.429 10.797 8.668 14 12.235 14 15.591 0 1.966-.855 3.921-2.314 5.292-4.025 3.781-6.306 3.008-17.186-5.817-12.864-10.436-13.457-10.564-18.062-3.92-2.045 2.952-2.506 4.423-1.834 5.865 1.493 3.207 22.679 19.754 26.72 20.87 9.013 2.488 18.067-4.733 20.202-16.112.383-2.039 1.135-3.421 1.679-3.085 2.678 1.655 10.692-6.848 9.465-10.044-.481-1.255-18.311-16.49-26.764-22.87-4.692-3.541-6.073-3.426-9.802.822M117.91 406.25c-1.172 2.337-4.715 7.85-7.873 12.25-3.158 4.4-6.258 8.983-6.889 10.184-1.773 3.375-1.362 9.233.905 12.902 2.313 3.742 9.928 9.673 15.307 11.92 6.255 2.613 17.64 1.461 17.64-1.785 0-.731-1.484-2.767-3.298-4.525-2.533-2.455-4.178-3.196-7.095-3.196-5.144 0-9.607-3.235-9.607-6.963 0-2.673.177-2.786 3.25-2.091 1.787.404 5.5 1.746 8.25 2.983 6.169 2.774 15.048 3.668 18.5 1.863 3.695-1.933 6.365-8.027 5.514-12.585-.994-5.324-7.654-11.433-14.558-13.354-3.874-1.078-5.802-2.241-6.914-4.171-1.696-2.944-7.689-7.682-9.716-7.682-.707 0-2.244 1.913-3.416 4.25m252.324 6.863c-2.346 1.162-5.496 3.866-7 6.009-1.511 2.154-3.852 4.14-5.234 4.44-3.624.786-8.695 3.443-10.611 5.561-1.565 1.728-1.446 2.072 2.06 5.953 2.047 2.265 6.199 7.959 9.227 12.653 7.526 11.666 9.409 13.271 15.575 13.271 8.549 0 20.137-7.039 23.699-14.396 2.498-5.162 2.732-11.405.459-12.277-2.683-1.03-8.081 2.317-10.403 6.449-3.3 5.87-10.268 9.31-11.637 5.744-.355-.926 2.064-4.394 6.471-9.275 3.871-4.287 7.534-9.099 8.14-10.694 1.209-3.179.528-7.846-1.625-11.132-3.128-4.774-11.978-5.841-19.121-2.306m-236.302 8.352c3.448 1.783 4.858 6.173 2.683 8.349-1.335 1.335-1.997 1.312-5.979-.209-2.463-.941-5.062-2.413-5.775-3.272-1.097-1.322-.87-1.929 1.477-3.948 3.248-2.793 3.834-2.864 7.594-.92m242.953 3.443c2.21 1.399.512 5.688-3.447 8.707-3.228 2.462-3.688 2.564-5.122 1.13-4.252-4.253 3.441-13.085 8.569-9.837M172.793 438.25c-.79 1.238-5.579 12.765-10.641 25.616-6.988 17.738-8.938 23.686-8.1 24.697 1.539 1.854 9.571 4.796 11.292 4.135 1.734-.665 22.041-51.266 21.152-52.704-.888-1.437-7.292-3.994-10.003-3.994-1.254 0-2.903 1.003-3.7 2.25m70.443 14.539c-.7.469-1.748 4.831-2.349 9.779-.596 4.912-1.293 9.148-1.549 9.412-.255.264-6.205.489-13.221.5-12.122.019-12.958.153-16.781 2.681-4.968 3.285-7.336 8.059-7.336 14.79 0 5.985 1.7 9.777 6.01 13.404 3.989 3.357 7.392 4.19 25.343 6.203 13.466 1.51 14.998 1.52 16.415.103 1.5-1.501 4.797-24.685 6.727-47.313.632-7.401.526-8.202-1.15-8.693-4.002-1.173-10.912-1.667-12.109-.866m-6.13 31.917c.736.736.873 3.17.404 7.209-.828 7.137-2.041 7.871-10.04 6.078-9.103-2.04-12.44-8.505-6.72-13.017 2.317-1.828 3.733-2.107 8.997-1.776 3.436.217 6.748.895 7.359 1.506"/></svg>